<?xml version="1.0" encoding="UTF-8" standalone="no"?>
<!-- Created with Inkscape (http://www.inkscape.org/) -->

<svg
   width="210mm"
   height="297mm"
   viewBox="0 0 210 297"
   version="1.1"
   id="svg5"
   xmlns="http://www.w3.org/2000/svg"
   xmlns:svg="http://www.w3.org/2000/svg">
  <defs
     id="defs2">
    <linearGradient
       id="paint0_linear"
       x1="67.799103"
       y1="16.0896"
       x2="104.897"
       y2="5.7753401"
       gradientUnits="userSpaceOnUse">
      <stop
         stop-color="#F69923"
         id="stop4946" />
      <stop
         offset="0.3123"
         stop-color="#F79A23"
         id="stop4948" />
      <stop
         offset="0.8383"
         stop-color="#E97826"
         id="stop4950" />
    </linearGradient>
    <clipPath
       clipPathUnits="userSpaceOnUse"
       id="clipPath6091">
      <g
         id="g6095">
        <rect
           width="437"
           height="177.24001"
           fill="#ffffff"
           id="rect6093"
           x="1"
           y="1" />
      </g>
    </clipPath>
    <clipPath
       clipPathUnits="userSpaceOnUse"
       id="clipPath6085">
      <g
         id="g6089">
        <rect
           width="437"
           height="177.24001"
           fill="#ffffff"
           id="rect6087"
           x="1"
           y="1" />
      </g>
    </clipPath>
    <clipPath
       clipPathUnits="userSpaceOnUse"
       id="clipPath6079">
      <g
         id="g6083">
        <rect
           width="437"
           height="177.24001"
           fill="#ffffff"
           id="rect6081"
           x="1"
           y="1" />
      </g>
    </clipPath>
    <clipPath
       clipPathUnits="userSpaceOnUse"
       id="clipPath6073">
      <g
         id="g6077">
        <rect
           width="437"
           height="177.24001"
           fill="#ffffff"
           id="rect6075"
           x="1"
           y="1" />
      </g>
    </clipPath>
    <clipPath
       clipPathUnits="userSpaceOnUse"
       id="clipPath6067">
      <g
         id="g6071">
        <rect
           width="437"
           height="177.24001"
           fill="#ffffff"
           id="rect6069"
           x="1"
           y="1" />
      </g>
    </clipPath>
    <linearGradient
       id="paint1_linear"
       x1="-13.4015"
       y1="182.58701"
       x2="62.052502"
       y2="20.769501"
       gradientUnits="userSpaceOnUse">
      <stop
         offset="0.3233"
         stop-color="#9E2064"
         id="stop4953" />
      <stop
         offset="0.6302"
         stop-color="#C92037"
         id="stop4955" />
      <stop
         offset="0.7514"
         stop-color="#CD2335"
         id="stop4957" />
      <stop
         offset="1"
         stop-color="#E97826"
         id="stop4959" />
    </linearGradient>
    <clipPath
       clipPathUnits="userSpaceOnUse"
       id="clipPath6061">
      <g
         id="g6065">
        <rect
           width="437"
           height="177.24001"
           fill="#ffffff"
           id="rect6063"
           x="1"
           y="1" />
      </g>
    </clipPath>
    <linearGradient
       id="paint2_linear"
       x1="11.9372"
       y1="170.62199"
       x2="56.900501"
       y2="74.194199"
       gradientUnits="userSpaceOnUse">
      <stop
         stop-color="#282662"
         id="stop4962" />
      <stop
         offset="0.0954839"
         stop-color="#662E8D"
         id="stop4964" />
      <stop
         offset="0.7882"
         stop-color="#9F2064"
         id="stop4966" />
      <stop
         offset="0.9487"
         stop-color="#CD2032"
         id="stop4968" />
    </linearGradient>
    <clipPath
       clipPathUnits="userSpaceOnUse"
       id="clipPath6055">
      <g
         id="g6059">
        <rect
           width="437"
           height="177.24001"
           fill="#ffffff"
           id="rect6057"
           x="1"
           y="1" />
      </g>
    </clipPath>
    <linearGradient
       id="paint3_linear"
       x1="-10.6708"
       y1="172.79601"
       x2="64.783203"
       y2="10.9783"
       gradientUnits="userSpaceOnUse">
      <stop
         offset="0.3233"
         stop-color="#9E2064"
         id="stop4971" />
      <stop
         offset="0.6302"
         stop-color="#C92037"
         id="stop4973" />
      <stop
         offset="0.7514"
         stop-color="#CD2335"
         id="stop4975" />
      <stop
         offset="1"
         stop-color="#E97826"
         id="stop4977" />
    </linearGradient>
    <clipPath
       clipPathUnits="userSpaceOnUse"
       id="clipPath6049">
      <g
         id="g6053">
        <rect
           width="437"
           height="177.24001"
           fill="#ffffff"
           id="rect6051"
           x="1"
           y="1" />
      </g>
    </clipPath>
    <linearGradient
       id="paint4_linear"
       x1="-2.97895"
       y1="162.015"
       x2="36.6744"
       y2="76.974701"
       gradientUnits="userSpaceOnUse">
      <stop
         stop-color="#282662"
         id="stop4980" />
      <stop
         offset="0.0954839"
         stop-color="#662E8D"
         id="stop4982" />
      <stop
         offset="0.7882"
         stop-color="#9F2064"
         id="stop4984" />
      <stop
         offset="0.9487"
         stop-color="#CD2032"
         id="stop4986" />
    </linearGradient>
    <clipPath
       clipPathUnits="userSpaceOnUse"
       id="clipPath6043">
      <g
         id="g6047">
        <rect
           width="437"
           height="177.24001"
           fill="#ffffff"
           id="rect6045"
           x="1"
           y="1" />
      </g>
    </clipPath>
    <linearGradient
       id="paint5_linear"
       x1="6.0763798"
       y1="180.605"
       x2="81.530502"
       y2="18.787701"
       gradientUnits="userSpaceOnUse">
      <stop
         offset="0.3233"
         stop-color="#9E2064"
         id="stop4989" />
      <stop
         offset="0.6302"
         stop-color="#C92037"
         id="stop4991" />
      <stop
         offset="0.7514"
         stop-color="#CD2335"
         id="stop4993" />
      <stop
         offset="1"
         stop-color="#E97826"
         id="stop4995" />
    </linearGradient>
    <clipPath
       clipPathUnits="userSpaceOnUse"
       id="clipPath6037">
      <g
         id="g6041">
        <rect
           width="437"
           height="177.24001"
           fill="#ffffff"
           id="rect6039"
           x="1"
           y="1" />
      </g>
    </clipPath>
    <linearGradient
       id="paint6_linear"
       x1="0.56391299"
       y1="190.255"
       x2="76.017899"
       y2="28.437799"
       gradientUnits="userSpaceOnUse">
      <stop
         offset="0.3233"
         stop-color="#9E2064"
         id="stop4998" />
      <stop
         offset="0.6302"
         stop-color="#C92037"
         id="stop5000" />
      <stop
         offset="0.7514"
         stop-color="#CD2335"
         id="stop5002" />
      <stop
         offset="1"
         stop-color="#E97826"
         id="stop5004" />
    </linearGradient>
    <clipPath
       clipPathUnits="userSpaceOnUse"
       id="clipPath6031">
      <g
         id="g6035">
        <rect
           width="437"
           height="177.24001"
           fill="#ffffff"
           id="rect6033"
           x="1"
           y="1" />
      </g>
    </clipPath>
    <clipPath
       clipPathUnits="userSpaceOnUse"
       id="clipPath6025">
      <g
         id="g6029">
        <rect
           width="437"
           height="177.24001"
           fill="#ffffff"
           id="rect6027"
           x="1"
           y="1" />
      </g>
    </clipPath>
    <clipPath
       clipPathUnits="userSpaceOnUse"
       id="clipPath6019">
      <g
         id="g6023">
        <rect
           width="437"
           height="177.24001"
           fill="#ffffff"
           id="rect6021"
           x="1"
           y="1" />
      </g>
    </clipPath>
    <linearGradient
       id="paint7_linear"
       x1="11.0576"
       y1="182.92799"
       x2="86.512703"
       y2="21.110001"
       gradientUnits="userSpaceOnUse">
      <stop
         offset="0.3233"
         stop-color="#9E2064"
         id="stop5007" />
      <stop
         offset="0.6302"
         stop-color="#C92037"
         id="stop5009" />
      <stop
         offset="0.7514"
         stop-color="#CD2335"
         id="stop5011" />
      <stop
         offset="1"
         stop-color="#E97826"
         id="stop5013" />
    </linearGradient>
    <clipPath
       clipPathUnits="userSpaceOnUse"
       id="clipPath6013">
      <g
         id="g6017">
        <rect
           width="437"
           height="177.24001"
           fill="#ffffff"
           id="rect6015"
           x="1"
           y="1" />
      </g>
    </clipPath>
    <clipPath
       clipPathUnits="userSpaceOnUse"
       id="clipPath6007">
      <g
         id="g6011">
        <rect
           width="437"
           height="177.24001"
           fill="#ffffff"
           id="rect6009"
           x="1"
           y="1" />
      </g>
    </clipPath>
    <clipPath
       clipPathUnits="userSpaceOnUse"
       id="clipPath6001">
      <g
         id="g6005">
        <rect
           width="437"
           height="177.24001"
           fill="#ffffff"
           id="rect6003"
           x="1"
           y="1" />
      </g>
    </clipPath>
    <linearGradient
       id="paint8_linear"
       x1="10.3727"
       y1="182.923"
       x2="86.014297"
       y2="20.724701"
       gradientUnits="userSpaceOnUse">
      <stop
         offset="0.3233"
         stop-color="#9E2064"
         id="stop5016" />
      <stop
         offset="0.6302"
         stop-color="#C92037"
         id="stop5018" />
      <stop
         offset="0.7514"
         stop-color="#CD2335"
         id="stop5020" />
      <stop
         offset="1"
         stop-color="#E97826"
         id="stop5022" />
    </linearGradient>
    <clipPath
       clipPathUnits="userSpaceOnUse"
       id="clipPath5995">
      <g
         id="g5999">
        <rect
           width="437"
           height="177.24001"
           fill="#ffffff"
           id="rect5997"
           x="1"
           y="1" />
      </g>
    </clipPath>
  </defs>
  <g
     id="layer1">
    <g
       aria-label="COMMUNITY"
       transform="matrix(0.91436326,0,0,0.92654475,-0.34446917,14.717173)"
       id="text265"
       style="font-weight:600;font-size:17.8599px;line-height:1;font-family:Montserrat;-inkscape-font-specification:'Montserrat Semi-Bold';text-align:center;text-anchor:middle;fill:#803300;stroke-width:1.3395">
      <path
         d="m 15.003357,78.405939 q -1.446652,0 -2.696845,-0.464358 Q 11.074179,77.459364 10.163324,76.584229 9.2524694,75.709094 8.7345323,74.53034 8.2344551,73.351587 8.2344551,71.940655 q 0,-1.410932 0.5000772,-2.589685 0.5179371,-1.178754 1.4287917,-2.053889 0.928715,-0.875135 2.161048,-1.339492 1.232333,-0.482218 2.696845,-0.482218 1.625251,0 2.929023,0.571517 1.321633,0.553657 2.214628,1.643111 l -1.85743,1.71455 q -0.642956,-0.732256 -1.428792,-1.089454 -0.785835,-0.375057 -1.71455,-0.375057 -0.875135,0 -1.607391,0.285758 -0.732256,0.285758 -1.268053,0.821555 -0.535797,0.535797 -0.839415,1.268053 -0.285758,0.732256 -0.285758,1.625251 0,0.892995 0.285758,1.625251 0.303618,0.732256 0.839415,1.268053 0.535797,0.535797 1.268053,0.821555 0.732256,0.285759 1.607391,0.285759 0.928715,0 1.71455,-0.357198 0.785836,-0.375058 1.428792,-1.125174 l 1.85743,1.71455 q -0.892995,1.089454 -2.214628,1.660971 -1.303772,0.571517 -2.946883,0.571517 z"
         style="font-weight:bold;-inkscape-font-specification:'Montserrat Bold';fill:#f59524;fill-opacity:1"
         id="path9804" />
      <path
         d="m 27.916038,78.405939 q -1.482372,0 -2.750425,-0.482218 -1.250193,-0.482217 -2.178907,-1.357352 -0.910855,-0.875135 -1.428792,-2.053888 -0.500077,-1.178754 -0.500077,-2.571826 0,-1.393072 0.500077,-2.571825 0.517937,-1.178754 1.446652,-2.053889 0.928714,-0.875135 2.178907,-1.357352 1.250193,-0.482218 2.714705,-0.482218 1.482372,0 2.714705,0.482218 1.250193,0.482217 2.161048,1.357352 0.928714,0.875135 1.446651,2.053889 0.517938,1.160893 0.517938,2.571825 0,1.393072 -0.517938,2.589685 -0.517937,1.178754 -1.446651,2.053889 -0.910855,0.857275 -2.161048,1.339492 -1.232333,0.482218 -2.696845,0.482218 z m -0.01786,-2.464666 q 0.839415,0 1.535951,-0.285759 0.714396,-0.285758 1.250193,-0.821555 0.535797,-0.535797 0.821556,-1.268053 0.303618,-0.732256 0.303618,-1.625251 0,-0.892995 -0.303618,-1.625251 -0.285759,-0.732256 -0.821556,-1.268053 -0.517937,-0.535797 -1.232333,-0.821555 -0.714396,-0.285758 -1.553811,-0.285758 -0.839415,0 -1.553811,0.285758 -0.696536,0.285758 -1.232333,0.821555 -0.535797,0.535797 -0.839416,1.268053 -0.285758,0.732256 -0.285758,1.625251 0,0.875135 0.285758,1.625251 0.303619,0.732256 0.821556,1.268053 0.535797,0.535797 1.250193,0.821555 0.714396,0.285759 1.553811,0.285759 z"
         style="font-weight:bold;-inkscape-font-specification:'Montserrat Bold';fill:#f69923;fill-opacity:1"
         id="path9806" />
      <path
         d="M 36.917424,78.19162 V 65.68969 h 2.393226 l 5.32225,8.822791 h -1.268053 l 5.232951,-8.822791 h 2.375366 l 0.03572,12.50193 H 48.29418 l -0.01786,-8.340573 h 0.500077 l -4.179217,7.01894 h -1.303772 l -4.268516,-7.01894 h 0.607236 v 8.340573 z"
         style="font-weight:bold;-inkscape-font-specification:'Montserrat Bold';fill:#e56b29;fill-opacity:1"
         id="path9808" />
      <path
         d="M 53.973625,78.19162 V 65.68969 h 2.393227 l 5.32225,8.822791 H 60.421049 L 65.654,65.68969 h 2.375366 l 0.03572,12.50193 h -2.714705 l -0.01786,-8.340573 h 0.500077 l -4.179217,7.01894 H 60.34961 l -4.268516,-7.01894 h 0.607236 v 8.340573 z"
         style="font-weight:bold;-inkscape-font-specification:'Montserrat Bold';fill:#d43831;fill-opacity:1"
         id="path9810" />
      <path
         d="m 76.584256,78.405939 q -2.661125,0 -4.161356,-1.482372 -1.500232,-1.482372 -1.500232,-4.232796 V 65.68969 h 2.893304 v 6.893921 q 0,1.78599 0.732256,2.571826 0.732256,0.785836 2.053888,0.785836 1.321633,0 2.053889,-0.785836 0.732255,-0.785836 0.732255,-2.571826 V 65.68969 h 2.857584 v 7.001081 q 0,2.750424 -1.500231,4.232796 -1.500232,1.482372 -4.161357,1.482372 z"
         style="font-weight:bold;-inkscape-font-specification:'Montserrat Bold';fill:#c12040;fill-opacity:1"
         id="path9812" />
      <path
         d="M 85.103398,78.19162 V 65.68969 h 2.393226 l 7.376139,9.00139 h -1.160894 v -9.00139 h 2.857584 v 12.50193 h -2.375366 l -7.393999,-9.001389 h 1.160894 v 9.001389 z"
         style="font-weight:bold;-inkscape-font-specification:'Montserrat Bold';fill:#b82049;fill-opacity:1"
         id="path9814" />
      <path
         d="M 99.534169,78.19162 V 65.68969 h 2.893301 v 12.50193 z"
         style="font-weight:bold;-inkscape-font-specification:'Montserrat Bold';fill:#a92059;fill-opacity:1"
         id="path9816" />
      <path
         d="M 107.98189,78.19162 V 68.047197 h -4.00062 V 65.68969 h 10.89454 v 2.357507 h -4.00062 V 78.19162 Z"
         style="font-weight:bold;-inkscape-font-specification:'Montserrat Bold';fill:#882675;fill-opacity:1"
         id="path9818" />
      <path
         d="m 119.30502,78.19162 v -5.107931 l 0.66082,1.75027 -5.50085,-9.144269 h 3.0719 l 4.21494,7.018941 h -1.76813 l 4.23279,-7.018941 h 2.83973 l -5.50085,9.144269 0.64296,-1.75027 v 5.107931 z"
         style="font-weight:bold;-inkscape-font-specification:'Montserrat Bold';fill:#7a297f;fill-opacity:1"
         id="path9820" />
      <text
         xml:space="preserve"
         style="font-style:normal;font-variant:normal;font-weight:bold;font-stretch:normal;font-size:3.52777px;line-height:1;font-family:Montserrat;-inkscape-font-specification:'Montserrat Bold';text-align:center;text-anchor:middle;fill:#c12040;fill-opacity:1;stroke:none;stroke-width:0.354409"
         x="33.664196"
         y="96.273308"
         id="text17122"
         transform="scale(1.0936572,0.91436329)"><tspan
           id="tspan17120"
           style="fill:#ffffff;stroke-width:0.354409"
           x="33.664196"
           y="96.273308">THE ASF CONFERENCE</tspan></text>
    </g>
    <text
       xml:space="preserve"
       style="font-style:normal;font-variant:normal;font-weight:600;font-stretch:normal;font-size:34.3047px;line-height:1;font-family:Montserrat;-inkscape-font-specification:'Montserrat Semi-Bold';text-align:center;text-anchor:middle;fill:#282662;fill-opacity:1;stroke:none;stroke-width:2.57286"
       x="62.029358"
       y="126.633"
       id="text368"
       transform="scale(0.993517,1.0065253)"><tspan
         id="tspan366"
         style="font-style:normal;font-variant:normal;font-weight:bold;font-stretch:normal;font-family:Montserrat;-inkscape-font-specification:'Montserrat Bold';fill:#282662;fill-opacity:1;stroke:none;stroke-width:2.57286"
         x="62.029358"
         y="126.633">CODE</tspan></text>
    <rect
       style="fill:#282662;fill-opacity:1;stroke:none;stroke-width:0.359471"
       id="rect689"
       width="102.15617"
       height="9.6582899"
       x="10.429855"
       y="90.657608" />
    <text
       xml:space="preserve"
       style="font-style:normal;font-variant:normal;font-weight:bold;font-stretch:normal;font-size:7.05556px;line-height:1;font-family:Montserrat;-inkscape-font-specification:'Montserrat Bold';text-align:center;text-anchor:middle;fill:#ffffff;fill-opacity:1;stroke:none;stroke-width:0.264583"
       x="61.719604"
       y="97.631836"
       id="text17280"><tspan
         id="tspan17278"
         style="font-style:normal;font-variant:normal;font-weight:300;font-stretch:normal;font-size:7.05556px;font-family:Montserrat;-inkscape-font-specification:'Montserrat Light';stroke-width:0.264583"
         x="61.719604"
         y="97.631836">THE ASF CONFERENCE</tspan></text>
  </g>
</svg>
