<svg width="439" height="179" viewBox="0 0 439 179" fill="none" xmlns="http://www.w3.org/2000/svg">
<rect width="439" height="179" fill="white"/>
<g clip-path="url(#clip0)">
<path d="M436.572 53.038C437.51 53.976 437.976 55.104 437.976 56.4221C437.976 57.7403 437.51 58.8683 436.572 59.8186C435.634 60.7627 434.5 61.2348 433.163 61.2348C431.827 61.2348 430.699 60.7689 429.767 59.8308C428.841 58.8928 428.375 57.7648 428.375 56.4467C428.375 55.1286 428.841 54.0005 429.779 53.0502C430.717 52.1061 431.845 51.634 433.175 51.634C434.5 51.634 435.634 52.1 436.572 53.038ZM436.167 59.4201C436.983 58.5863 437.393 57.5931 437.393 56.4344C437.393 55.2757 436.989 54.2886 436.179 53.461C435.37 52.6395 434.377 52.2287 433.2 52.2287C432.023 52.2287 431.03 52.6395 430.214 53.4671C429.399 54.2948 428.994 55.288 428.994 56.4528C428.994 57.6176 429.399 58.6108 430.202 59.4323C431.005 60.2539 431.998 60.6646 433.175 60.6646C434.352 60.6646 435.346 60.2477 436.167 59.4201ZM435.493 55.5087C435.493 56.367 435.119 56.9065 434.365 57.1272L435.744 58.9971H434.628L433.384 57.2621H432.244V58.9971H431.342V53.8105H433.292C434.077 53.8105 434.641 53.9453 434.984 54.2151C435.327 54.4848 435.493 54.914 435.493 55.5087ZM434.334 56.2382C434.518 56.0911 434.604 55.8397 434.604 55.5025C434.604 55.1653 434.512 54.9262 434.328 54.7914C434.144 54.6565 433.813 54.5952 433.347 54.5952H432.244V56.4651H433.316C433.813 56.4589 434.156 56.3854 434.334 56.2382Z" fill="#6D6E71"/>
<path d="M111.574 31.703V41.2302H110.348V31.703H106.866V30.5259H115.075V31.703H111.574Z" fill="#6D6E71"/>
<path d="M128.655 41.2302V36.5156H122.205V41.2302H120.979V30.5198H122.205V35.3569H128.655V30.5198H129.881V41.2302H128.655Z" fill="#6D6E71"/>
<path d="M138.415 31.703V35.2221H143.816V36.3992H138.415V40.0654H144.656V41.2302H137.188V30.5198H144.46V31.6969H138.415V31.703Z" fill="#6D6E71"/>
<path d="M97.5288 114.627L123.112 53.467H128.023L153.607 114.627H147.145L139.218 95.5056H111.74L103.899 114.627H97.5288ZM125.614 60.5297L113.04 90.7665H137.851L125.614 60.5297Z" fill="#D22128"/>
<path d="M160.209 114.627V53.467H185.536C196.044 53.467 203.627 63.2027 203.627 72.6747C203.627 82.6678 196.565 92.054 186.057 92.054H166.156V114.621H160.209V114.627ZM166.156 86.7141H185.707C192.942 86.7141 197.595 80.0806 197.595 72.6747C197.595 65.0051 191.912 58.8069 185.192 58.8069H166.156V86.7141Z" fill="#D22128"/>
<path d="M200.28 114.627L225.864 53.467H230.775L256.358 114.627H249.896L241.969 95.5056H214.491L206.65 114.627H200.28ZM228.365 60.5297L215.791 90.7665H240.602L228.365 60.5297Z" fill="#D22128"/>
<path d="M285.301 53.1174C296.153 53.1174 304.08 58.629 307.869 66.4702L303.044 69.4007C299.169 61.302 291.585 58.5493 284.952 58.5493C270.306 58.5493 262.299 71.6446 262.299 83.9613C262.299 97.4857 272.206 109.717 285.209 109.717C292.1 109.717 300.199 106.271 304.074 98.344L309.07 100.925C305.11 110.054 294.252 115.136 284.866 115.136C268.068 115.136 256.266 99.1165 256.266 83.6118C256.272 68.8857 266.866 53.1174 285.301 53.1174Z" fill="#D22128"/>
<path d="M365.725 53.467V114.627H359.692V86.0275H323.429V114.627H317.488V53.467H323.429V80.6876H359.692V53.467H365.725Z" fill="#D22128"/>
<path d="M420.625 109.281V114.621H379.537V53.467H419.853V58.8069H385.484V80.8592H415.463V85.9416H385.484V109.288H420.625V109.281Z" fill="#D22128"/>
<path d="M103.236 127.576C103.96 127.79 104.597 128.085 105.137 128.446L104.505 129.832C103.954 129.464 103.365 129.194 102.734 129.01C102.108 128.832 101.507 128.741 100.943 128.741C100.11 128.741 99.4413 128.888 98.9447 129.188C98.4481 129.488 98.1968 129.912 98.1968 130.457C98.1968 130.923 98.3378 131.315 98.6137 131.622C98.8895 131.929 99.239 132.168 99.6559 132.339C100.073 132.511 100.643 132.707 101.372 132.928C102.255 133.21 102.966 133.473 103.5 133.719C104.039 133.964 104.499 134.326 104.879 134.81C105.259 135.288 105.449 135.926 105.449 136.711C105.449 137.428 105.253 138.047 104.867 138.587C104.481 139.12 103.929 139.537 103.224 139.831C102.513 140.125 101.697 140.272 100.772 140.272C99.8459 140.272 98.9508 140.095 98.0803 139.739C97.2097 139.384 96.4618 138.905 95.8364 138.305L96.4924 136.98C97.081 137.557 97.7615 138.004 98.534 138.323C99.3064 138.642 100.054 138.801 100.79 138.801C101.728 138.801 102.464 138.617 103.003 138.255C103.543 137.894 103.813 137.403 103.813 136.79C103.813 136.312 103.672 135.914 103.39 135.601C103.107 135.288 102.758 135.049 102.341 134.871C101.924 134.7 101.354 134.503 100.625 134.283C99.754 134.025 99.0489 133.774 98.5033 133.535C97.9577 133.296 97.4979 132.94 97.1239 132.462C96.7499 131.99 96.5599 131.364 96.5599 130.586C96.5599 129.918 96.7438 129.335 97.1116 128.833C97.4795 128.33 98.0067 127.937 98.6811 127.662C99.3616 127.386 100.14 127.245 101.023 127.245C101.777 127.251 102.507 127.361 103.236 127.576Z" fill="#6D6E71"/>
<path d="M122.395 128.139C123.425 128.716 124.246 129.507 124.847 130.494C125.448 131.487 125.755 132.572 125.755 133.761C125.755 134.957 125.454 136.054 124.847 137.047C124.246 138.047 123.425 138.831 122.395 139.414C121.365 139.996 120.231 140.291 119.011 140.291C117.766 140.291 116.632 140.002 115.596 139.414C114.566 138.831 113.744 138.041 113.144 137.047C112.543 136.048 112.236 134.957 112.236 133.761C112.236 132.566 112.537 131.475 113.144 130.481C113.744 129.488 114.566 128.703 115.596 128.133C116.626 127.557 117.766 127.275 119.011 127.275C120.231 127.269 121.359 127.557 122.395 128.139ZM116.375 129.359C115.571 129.813 114.928 130.432 114.45 131.205C113.971 131.977 113.726 132.829 113.726 133.761C113.726 134.699 113.965 135.558 114.45 136.336C114.928 137.115 115.571 137.734 116.375 138.188C117.178 138.641 118.054 138.868 119.005 138.868C119.955 138.868 120.826 138.641 121.623 138.188C122.42 137.734 123.051 137.121 123.529 136.336C124.001 135.558 124.24 134.699 124.24 133.761C124.24 132.823 124.001 131.971 123.529 131.199C123.057 130.426 122.42 129.813 121.623 129.359C120.826 128.906 119.955 128.673 119.011 128.673C118.061 128.673 117.184 128.9 116.375 129.359Z" fill="#6D6E71"/>
<path d="M135.049 128.728V133.265H141.081V134.687H135.049V140.217H133.571V127.306H141.774V128.728H135.049V128.728Z" fill="#6D6E71"/>
<path d="M153.754 128.728V140.217H152.276V128.728H148.083V127.306H157.978V128.728H153.754Z" fill="#6D6E71"/>
<path d="M177.063 140.217L173.581 129.341L170.049 140.217H168.547L164.225 127.306H165.813L169.363 138.507L172.863 127.324L174.341 127.306L177.878 138.507L181.379 127.306H182.912L178.583 140.217H177.063V140.217Z" fill="#6D6E71"/>
<path d="M190.275 136.955L188.834 140.217H187.265L193.052 127.306H194.585L200.354 140.217H198.754L197.313 136.955H190.275ZM193.782 128.985L190.906 135.533H196.694L193.782 128.985Z" fill="#6D6E71"/>
<path d="M213.191 136.103C212.824 136.128 212.535 136.14 212.327 136.14H208.894V140.217H207.422V127.306H212.327C213.933 127.306 215.184 127.686 216.079 128.44C216.968 129.194 217.415 130.267 217.415 131.646C217.415 132.701 217.164 133.59 216.668 134.301C216.171 135.012 215.454 135.527 214.522 135.834L217.538 140.217H215.864L213.191 136.103ZM215.043 133.951C215.674 133.436 215.993 132.676 215.993 131.683C215.993 130.708 215.674 129.973 215.043 129.476C214.411 128.979 213.504 128.728 212.327 128.728H208.894V134.724H212.327C213.504 134.724 214.411 134.466 215.043 133.951Z" fill="#6D6E71"/>
<path d="M227.12 128.728V132.97H233.631V134.393H227.12V138.813H234.649V140.217H225.643V127.306H234.403V128.728H227.12V128.728Z" fill="#6D6E71"/>
<path d="M255.242 128.728V133.265H261.275V134.687H255.242V140.217H253.765V127.306H261.968V128.728H255.242V128.728Z" fill="#6D6E71"/>
<path d="M278.312 128.139C279.342 128.716 280.164 129.507 280.765 130.494C281.366 131.487 281.672 132.572 281.672 133.761C281.672 134.957 281.372 136.054 280.765 137.047C280.164 138.047 279.342 138.831 278.312 139.414C277.282 139.996 276.148 140.291 274.928 140.291C273.684 140.291 272.55 140.002 271.513 139.414C270.483 138.831 269.662 138.041 269.061 137.047C268.46 136.048 268.154 134.957 268.154 133.761C268.154 132.566 268.454 131.475 269.061 130.481C269.662 129.488 270.483 128.703 271.513 128.133C272.543 127.557 273.684 127.275 274.928 127.275C276.154 127.269 277.282 127.557 278.312 128.139ZM272.298 129.359C271.495 129.813 270.851 130.432 270.373 131.205C269.895 131.977 269.65 132.829 269.65 133.761C269.65 134.699 269.889 135.558 270.373 136.336C270.851 137.115 271.495 137.734 272.298 138.188C273.101 138.641 273.978 138.868 274.928 138.868C275.879 138.868 276.749 138.641 277.546 138.188C278.343 137.734 278.975 137.121 279.453 136.336C279.925 135.558 280.164 134.699 280.164 133.761C280.164 132.823 279.925 131.971 279.453 131.199C278.981 130.426 278.343 129.813 277.546 129.359C276.749 128.906 275.879 128.673 274.934 128.673C273.978 128.673 273.101 128.9 272.298 129.359Z" fill="#6D6E71"/>
<path d="M298.629 138.862C297.667 139.812 296.343 140.291 294.657 140.291C292.958 140.291 291.628 139.812 290.666 138.862C289.703 137.912 289.219 136.594 289.219 134.902V127.3H290.696V134.902C290.696 136.146 291.052 137.115 291.757 137.814C292.468 138.513 293.431 138.862 294.657 138.862C295.889 138.862 296.852 138.513 297.544 137.82C298.243 137.127 298.587 136.152 298.587 134.896V127.293H300.064V134.896C300.07 136.594 299.592 137.912 298.629 138.862Z" fill="#6D6E71"/>
<path d="M317.929 140.217L310.186 129.85V140.217H308.708V127.306H310.241L317.984 137.685V127.306H319.443V140.217H317.929Z" fill="#6D6E71"/>
<path d="M336.868 128.158C337.873 128.728 338.67 129.5 339.253 130.481C339.841 131.462 340.129 132.56 340.129 133.761C340.129 134.963 339.835 136.067 339.253 137.047C338.67 138.034 337.867 138.807 336.843 139.371C335.826 139.935 334.685 140.217 333.441 140.217H328.272V127.306H333.496C334.74 127.306 335.862 127.588 336.868 128.158ZM329.75 138.813H333.514C334.465 138.813 335.329 138.599 336.108 138.163C336.886 137.728 337.505 137.127 337.959 136.355C338.413 135.588 338.64 134.73 338.64 133.78C338.64 132.829 338.407 131.977 337.947 131.211C337.487 130.445 336.862 129.844 336.071 129.396C335.286 128.955 334.415 128.728 333.459 128.728H329.75V138.813V138.813Z" fill="#6D6E71"/>
<path d="M348.528 136.955L347.087 140.217H345.518L351.305 127.306H352.838L358.607 140.217H357.013L355.572 136.955H348.528ZM352.035 128.985L349.159 135.533H354.947L352.035 128.985Z" fill="#6D6E71"/>
<path d="M368.293 128.728V140.217H366.822V128.728H362.628V127.306H372.523V128.728H368.293Z" fill="#6D6E71"/>
<path d="M379.629 140.217V127.306H381.106V140.217H379.629Z" fill="#6D6E71"/>
<path d="M399.112 128.139C400.142 128.716 400.964 129.507 401.565 130.494C402.165 131.487 402.472 132.572 402.472 133.761C402.472 134.957 402.172 136.054 401.565 137.047C400.964 138.047 400.142 138.831 399.112 139.414C398.082 139.996 396.948 140.291 395.728 140.291C394.484 140.291 393.349 140.002 392.313 139.414C391.283 138.831 390.462 138.041 389.861 137.047C389.26 136.048 388.954 134.957 388.954 133.761C388.954 132.566 389.254 131.475 389.861 130.481C390.462 129.488 391.283 128.703 392.313 128.133C393.343 127.557 394.484 127.275 395.728 127.275C396.954 127.269 398.082 127.557 399.112 128.139ZM393.098 129.359C392.295 129.813 391.651 130.432 391.173 131.205C390.695 131.977 390.45 132.829 390.45 133.761C390.45 134.699 390.689 135.558 391.173 136.336C391.651 137.115 392.295 137.734 393.098 138.188C393.901 138.641 394.778 138.868 395.728 138.868C396.678 138.868 397.549 138.641 398.346 138.188C399.143 137.734 399.774 137.121 400.253 136.336C400.725 135.558 400.964 134.699 400.964 133.761C400.964 132.823 400.725 131.971 400.253 131.199C399.781 130.426 399.143 129.813 398.346 129.359C397.549 128.906 396.678 128.673 395.734 128.673C394.778 128.673 393.907 128.9 393.098 129.359Z" fill="#6D6E71"/>
<path d="M419.516 140.217L411.773 129.85V140.217H410.295V127.306H411.828L419.571 137.685V127.306H421.03V140.217H419.516Z" fill="#6D6E71"/>
<path d="M76.4145 1.9012C73.6373 3.54424 69.0208 8.18522 63.5093 14.9168L68.5733 24.4746C72.1291 19.3922 75.7401 14.8187 79.3818 10.9134C79.6638 10.6007 79.8109 10.4536 79.8109 10.4536C79.6699 10.6069 79.5289 10.7601 79.3818 10.9134C78.2047 12.2131 74.6305 16.382 69.2354 24.6708C74.4281 24.4133 82.4104 23.3466 88.9212 22.2369C90.8586 11.3855 87.0207 6.41957 87.0207 6.41957C87.0207 6.41957 82.1345 -1.47684 76.4145 1.9012Z" fill="url(#paint0_linear)"/>
<path d="M59.4017 82.1709C58.7519 82.2874 58.0897 82.4039 57.4092 82.5204C57.4031 82.5204 57.4031 82.5265 57.397 82.5265C57.7403 82.4774 58.0836 82.4223 58.4147 82.3671C58.7519 82.3058 59.0768 82.2383 59.4017 82.1709Z" fill="#BE202E"/>
<path opacity="0.35" d="M59.4017 82.1709C58.7519 82.2874 58.0897 82.4039 57.4092 82.5204C57.4031 82.5204 57.4031 82.5265 57.397 82.5265C57.7403 82.4774 58.0836 82.4223 58.4147 82.3671C58.7519 82.3058 59.0768 82.2383 59.4017 82.1709Z" fill="#BE202E"/>
<path d="M61.0997 73.8149C61.0935 73.8149 61.0935 73.8149 61.0997 73.8149C61.0935 73.821 61.0874 73.8211 61.0874 73.8211C61.1978 73.8088 61.302 73.7904 61.4062 73.772C61.8354 73.7107 62.2584 73.6371 62.6753 73.5452C62.1542 73.6371 61.633 73.723 61.0997 73.8149Z" fill="#BE202E"/>
<path opacity="0.35" d="M61.0997 73.8149C61.0935 73.8149 61.0935 73.8149 61.0997 73.8149C61.0935 73.821 61.0874 73.8211 61.0874 73.8211C61.1978 73.8088 61.302 73.7904 61.4062 73.772C61.8354 73.7107 62.2584 73.6371 62.6753 73.5452C62.1542 73.6371 61.633 73.723 61.0997 73.8149Z" fill="#BE202E"/>
<path d="M53.6383 49.169C55.1771 46.2937 56.7343 43.4797 58.31 40.7454C59.9469 37.9007 61.6022 35.148 63.2697 32.4872C63.3678 32.3278 63.4659 32.1684 63.564 32.0152C65.2193 29.3973 66.8869 26.8837 68.5667 24.4805L63.5027 14.9165C63.1226 15.3824 62.7364 15.8545 62.3501 16.3388C60.891 18.1597 59.3706 20.1154 57.8195 22.1937C56.0661 24.5357 54.2637 27.0309 52.4367 29.6548C50.7446 32.0765 49.0341 34.6146 47.3175 37.2386C45.8584 39.4763 44.3931 41.7753 42.9402 44.1357C42.885 44.2215 42.8298 44.3135 42.7808 44.3993L49.3713 57.4149C50.7691 54.6193 52.1976 51.8666 53.6383 49.169Z" fill="url(#paint1_linear)"/>
<path d="M23.6225 122.512C22.752 124.909 21.8753 127.349 20.9925 129.844C20.9802 129.881 20.9679 129.918 20.9557 129.954C20.8331 130.304 20.7043 130.659 20.5817 131.009C19.987 132.689 19.4782 134.203 18.2949 137.642C20.2384 138.531 21.7956 140.861 23.267 143.503C23.1076 140.763 21.9795 138.194 19.8215 136.202C29.3916 136.631 37.6374 134.215 41.8983 127.214C42.2784 126.589 42.6279 125.933 42.9405 125.24C41.0032 127.698 38.6 128.74 34.0816 128.489C34.0693 128.495 34.0632 128.495 34.051 128.501C34.0632 128.495 34.0693 128.495 34.0816 128.489C40.7396 125.51 44.0809 122.646 47.0298 117.907C47.7287 116.785 48.4092 115.553 49.1019 114.192C43.2839 120.17 36.5339 121.874 29.4284 120.58L24.1007 121.163C23.9536 121.61 23.7881 122.058 23.6225 122.512Z" fill="url(#paint2_linear)"/>
<path d="M26.1119 110.575C27.2645 107.602 28.4478 104.585 29.6678 101.551C30.8326 98.6446 32.0281 95.7141 33.2543 92.7713C34.4804 89.8286 35.7311 86.8797 37.0063 83.9308C38.306 80.9267 39.6364 77.9349 40.9851 74.9492C42.3216 72.0003 43.6827 69.0698 45.0682 66.1639C45.5648 65.1155 46.0675 64.0733 46.5764 63.0372C47.447 61.2409 48.3298 59.4568 49.2187 57.6912C49.2678 57.5931 49.3168 57.5011 49.3659 57.4091L42.7753 44.3936C42.665 44.5713 42.5607 44.7491 42.4504 44.9208C40.9116 47.4283 39.385 49.9909 37.8891 52.6088C36.3748 55.2511 34.885 57.9486 33.4321 60.683C32.2059 62.9881 31.0043 65.3178 29.8394 67.6659C29.6065 68.1441 29.3735 68.6162 29.1467 69.0882C27.7121 72.0432 26.4123 74.9002 25.2414 77.6406C23.911 80.7489 22.7462 83.7223 21.7162 86.5363C21.0418 88.3878 20.4287 90.178 19.8708 91.8946C19.411 93.366 18.9696 94.8312 18.5527 96.2965C17.5718 99.7481 16.7196 103.187 16.0269 106.615L22.6419 119.698C23.5186 117.362 24.4137 114.989 25.3395 112.586C25.5908 111.918 25.8545 111.249 26.1119 110.575Z" fill="url(#paint3_linear)"/>
<path d="M15.9284 107.086C15.0946 111.267 14.506 115.436 14.2118 119.581C14.1995 119.728 14.1872 119.869 14.1811 120.016C12.1151 116.705 6.57898 113.468 6.59124 113.505C10.5517 119.25 13.5619 124.951 14.0033 130.549C11.8821 130.984 8.97611 130.352 5.61646 129.12C9.11711 132.339 11.7472 133.228 12.771 133.467C9.5524 133.669 6.20501 135.876 2.83309 138.421C7.76835 136.41 11.7533 135.613 14.6103 136.256C10.0796 149.07 5.54289 163.219 1 178.24C2.39168 177.829 3.21933 176.897 3.6914 175.628C4.50066 172.906 9.8712 155.053 18.2826 131.597C18.5217 130.929 18.7608 130.261 19.006 129.58C19.0735 129.396 19.1409 129.206 19.2083 129.016C20.0973 126.558 21.0169 124.044 21.9733 121.481C22.1879 120.899 22.4086 120.316 22.6293 119.728C22.6354 119.716 22.6354 119.703 22.6416 119.691L16.0265 106.62C15.9958 106.78 15.959 106.933 15.9284 107.086Z" fill="url(#paint4_linear)"/>
<path d="M50.3894 58.5067C50.1993 58.8929 50.0093 59.2853 49.8192 59.6777C49.2491 60.8548 48.6667 62.0564 48.0842 63.2825C47.4528 64.6129 46.8152 65.9739 46.1653 67.3595C45.8404 68.0584 45.5155 68.7634 45.1844 69.4807C44.1973 71.6265 43.198 73.8397 42.1865 76.1203C40.9419 78.9282 39.6728 81.8465 38.3854 84.8751C37.1592 87.7626 35.9147 90.7545 34.6518 93.8444C33.4563 96.781 32.2424 99.8096 31.0162 102.936C29.925 105.72 28.8153 108.583 27.7056 111.525C27.6505 111.666 27.5953 111.814 27.5462 111.955C26.4427 114.873 25.3269 117.877 24.1988 120.955C24.1743 121.022 24.1498 121.096 24.1191 121.163L29.4468 120.581C29.3425 120.562 29.2322 120.55 29.128 120.525C35.4978 119.728 43.9705 114.971 49.4453 109.092C51.965 106.382 54.2579 103.188 56.373 99.4479C57.9486 96.6645 59.4261 93.5746 60.8362 90.1598C62.0685 87.1741 63.2517 83.9432 64.392 80.4364C62.9268 81.2089 61.2531 81.7729 59.4016 82.1653C59.0767 82.2327 58.7456 82.3001 58.4146 82.3553C58.0774 82.4166 57.7402 82.4657 57.3968 82.5147C57.403 82.5147 57.403 82.5086 57.4091 82.5086C63.3498 80.2218 67.0957 75.8138 69.8177 70.4065C68.2544 71.4732 65.7163 72.8649 62.6693 73.5393C62.2585 73.6313 61.8294 73.7048 61.4002 73.7661C61.296 73.7845 61.1857 73.8029 61.0814 73.8152C61.0876 73.8152 61.0876 73.8152 61.0876 73.809H61.0937C63.1536 72.9446 64.8948 71.9821 66.4029 70.8418C66.7279 70.5965 67.0405 70.3452 67.3409 70.0877C67.8007 69.6892 68.2421 69.2723 68.659 68.8309C68.9288 68.5489 69.1863 68.2607 69.4376 67.9603C70.0262 67.2553 70.5841 66.4951 71.0991 65.6735C71.2585 65.4222 71.4117 65.1647 71.565 64.9011C71.7612 64.521 71.9513 64.147 72.1352 63.7791C72.9628 62.1116 73.6311 60.6218 74.1583 59.3159C74.4219 58.6661 74.6549 58.0591 74.8511 57.4951C74.9308 57.2683 75.0044 57.0537 75.0779 56.8453C75.2864 56.2199 75.458 55.662 75.5929 55.1716C75.7952 54.4359 75.9178 53.8534 75.9853 53.4304C75.783 53.5898 75.55 53.7492 75.2925 53.9025C73.4962 54.9754 70.4186 55.9502 67.9417 56.4038L72.8341 55.8643L67.9417 56.4038C67.905 56.41 67.8682 56.4161 67.8314 56.4222C67.5862 56.4651 67.3348 56.5019 67.0834 56.5448C67.1263 56.5265 67.1693 56.5019 67.2122 56.4835L50.4752 58.3166C50.4507 58.3841 50.4201 58.4454 50.3894 58.5067Z" fill="url(#paint5_linear)"/>
<path d="M69.2291 24.671C67.7393 26.9577 66.1147 29.551 64.3613 32.4877C64.2693 32.6409 64.1773 32.8003 64.0854 32.9536C62.5772 35.4979 60.971 38.2935 59.285 41.3527C57.8259 43.9951 56.3116 46.8275 54.7298 49.8745C53.3566 52.5291 51.9342 55.3431 50.4751 58.3227L67.2121 56.4896C72.086 54.2457 74.2686 52.2164 76.3837 49.2798C76.9477 48.4706 77.5117 47.6245 78.0696 46.7478C79.7862 44.0625 81.4783 41.1075 82.9804 38.1709C84.4334 35.3323 85.7208 32.5183 86.7017 29.9863C87.3271 28.3739 87.8298 26.8719 88.1792 25.5538C88.4858 24.389 88.7249 23.2916 88.9088 22.2371C82.4102 23.3467 74.4218 24.4135 69.2291 24.671Z" fill="url(#paint6_linear)"/>
<path d="M58.4147 82.3611C58.0775 82.4224 57.7403 82.4714 57.397 82.5205C57.7403 82.4776 58.0775 82.4224 58.4147 82.3611Z" fill="#BE202E"/>
<path opacity="0.35" d="M58.4147 82.3611C58.0775 82.4224 57.7403 82.4714 57.397 82.5205C57.7403 82.4776 58.0775 82.4224 58.4147 82.3611Z" fill="#BE202E"/>
<path d="M58.4147 82.3611C58.0775 82.4224 57.7403 82.4714 57.397 82.5205C57.7403 82.4776 58.0775 82.4224 58.4147 82.3611Z" fill="url(#paint7_linear)"/>
<path d="M61.0815 73.8211C61.1921 73.8088 61.2966 73.7904 61.4011 73.772C61.2966 73.7904 61.1921 73.8088 61.0815 73.8211Z" fill="#BE202E"/>
<path opacity="0.35" d="M61.0815 73.8211C61.1921 73.8088 61.2966 73.7904 61.4011 73.772C61.2966 73.7904 61.1921 73.8088 61.0815 73.8211Z" fill="#BE202E"/>
<path d="M61.0815 73.8211C61.1921 73.8088 61.2966 73.7904 61.4011 73.772C61.2966 73.7904 61.1921 73.8088 61.0815 73.8211Z" fill="url(#paint8_linear)"/>
</g>
<path d="M344.389 161.102H420.94V160.008H344.389V161.102Z" fill="#6D6E71"/>
<path d="M95.4863 161.102H172.038V160.008H95.4863V161.102Z" fill="#6D6E71"/>
<path d="M180.075 156.24V160.013H185.866V161.278H180.075V165.211H186.771V166.461H178.762V154.975H186.555V156.24H180.075Z" fill="#6D6E71"/>
<path d="M193.515 154.927C194.172 154.927 194.823 155.023 195.469 155.215C196.115 155.407 196.679 155.666 197.159 155.992L196.599 157.225C196.107 156.9 195.581 156.657 195.021 156.497C194.465 156.336 193.937 156.256 193.435 156.256C192.693 156.256 192.1 156.39 191.657 156.657C191.214 156.924 190.992 157.3 190.992 157.786C190.992 158.203 191.115 158.547 191.36 158.819C191.606 159.092 191.913 159.305 192.281 159.46C192.655 159.61 193.165 159.783 193.811 159.981C194.596 160.232 195.226 160.467 195.702 160.686C196.182 160.905 196.591 161.228 196.927 161.655C197.269 162.082 197.44 162.645 197.44 163.345C197.44 163.98 197.266 164.536 196.919 165.011C196.577 165.486 196.091 165.855 195.461 166.116C194.831 166.378 194.105 166.509 193.283 166.509C192.46 166.509 191.662 166.351 190.888 166.036C190.114 165.716 189.449 165.289 188.893 164.755L189.478 163.577C190.001 164.09 190.605 164.488 191.288 164.771C191.977 165.054 192.647 165.195 193.299 165.195C194.132 165.195 194.789 165.035 195.269 164.715C195.75 164.389 195.99 163.954 195.99 163.409C195.99 162.982 195.864 162.629 195.614 162.352C195.363 162.074 195.05 161.858 194.676 161.703C194.308 161.548 193.801 161.374 193.155 161.182C192.38 160.953 191.75 160.731 191.264 160.517C190.784 160.304 190.375 159.986 190.039 159.564C189.708 159.142 189.542 158.587 189.542 157.898C189.542 157.306 189.705 156.785 190.031 156.336C190.362 155.888 190.829 155.541 191.432 155.295C192.036 155.049 192.73 154.927 193.515 154.927Z" fill="#6D6E71"/>
<path d="M204.279 156.24V166.461H202.966V156.24H199.233V154.975H208.036V156.24H204.279Z" fill="#6D6E71"/>
<path d="M210.518 163.561L209.237 166.461H207.843L212.993 154.975H214.355L219.489 166.461H218.063L216.782 163.561H210.518ZM213.634 156.473L211.079 162.296H216.229L213.634 156.473Z" fill="#6D6E71"/>
<path d="M226.785 154.975C227.944 154.975 228.852 155.231 229.509 155.744C230.166 156.251 230.494 156.953 230.494 157.85C230.494 158.528 230.307 159.094 229.933 159.548C229.565 160.002 229.047 160.299 228.379 160.437C229.212 160.56 229.858 160.878 230.318 161.391C230.777 161.903 231.007 162.555 231.007 163.345C231.007 164.317 230.638 165.08 229.901 165.636C229.17 166.186 228.158 166.461 226.866 166.461H221.948V154.975H226.785ZM223.261 159.933H226.721C227.496 159.933 228.096 159.773 228.524 159.452C228.951 159.126 229.164 158.662 229.164 158.058C229.164 157.476 228.951 157.028 228.524 156.713C228.096 156.398 227.496 156.24 226.721 156.24H223.261V159.933ZM223.261 165.211H226.721C227.661 165.211 228.387 165.035 228.9 164.683C229.418 164.325 229.677 163.817 229.677 163.161C229.677 162.536 229.415 162.05 228.892 161.703C228.374 161.356 227.65 161.182 226.721 161.182H223.261V165.211Z" fill="#6D6E71"/>
<path d="M240.698 165.211V166.461H234.346V154.975H235.66V165.211H240.698Z" fill="#6D6E71"/>
<path d="M243.476 166.461V154.975H244.79V166.461H243.476Z" fill="#6D6E71"/>
<path d="M252.335 154.927C252.991 154.927 253.643 155.023 254.289 155.215C254.935 155.407 255.498 155.666 255.979 155.992L255.418 157.225C254.927 156.9 254.401 156.657 253.84 156.497C253.285 156.336 252.756 156.256 252.254 156.256C251.512 156.256 250.919 156.39 250.476 156.657C250.033 156.924 249.811 157.3 249.811 157.786C249.811 158.203 249.934 158.547 250.18 158.819C250.426 159.092 250.733 159.305 251.101 159.46C251.475 159.61 251.985 159.783 252.631 159.981C253.416 160.232 254.046 160.467 254.521 160.686C255.002 160.905 255.41 161.228 255.747 161.655C256.088 162.082 256.259 162.645 256.259 163.345C256.259 163.98 256.086 164.536 255.739 165.011C255.397 165.486 254.911 165.855 254.281 166.116C253.651 166.378 252.925 166.509 252.102 166.509C251.28 166.509 250.482 166.351 249.707 166.036C248.933 165.716 248.268 165.289 247.713 164.755L248.298 163.577C248.821 164.09 249.424 164.488 250.108 164.771C250.797 165.054 251.467 165.195 252.118 165.195C252.951 165.195 253.608 165.035 254.089 164.715C254.569 164.389 254.81 163.954 254.81 163.409C254.81 162.982 254.684 162.629 254.433 162.352C254.182 162.074 253.87 161.858 253.496 161.703C253.127 161.548 252.62 161.374 251.974 161.182C251.2 160.953 250.57 160.731 250.084 160.517C249.603 160.304 249.195 159.986 248.858 159.564C248.527 159.142 248.362 158.587 248.362 157.898C248.362 157.306 248.525 156.785 248.85 156.336C249.181 155.888 249.649 155.541 250.252 155.295C250.855 155.049 251.55 154.927 252.335 154.927Z" fill="#6D6E71"/>
<path d="M267.841 166.461V161.407H260.92V166.461H259.607V154.975H260.92V160.165H267.841V154.975H269.154V166.461H267.841Z" fill="#6D6E71"/>
<path d="M274.6 156.24V160.013H280.391V161.278H274.6V165.211H281.296V166.461H273.287V154.975H281.08V156.24H274.6Z" fill="#6D6E71"/>
<path d="M289.273 154.975C290.379 154.975 291.377 155.228 292.269 155.736C293.166 156.238 293.874 156.926 294.392 157.802C294.915 158.673 295.177 159.644 295.177 160.718C295.177 161.791 294.915 162.766 294.392 163.641C293.874 164.517 293.161 165.206 292.253 165.708C291.345 166.21 290.336 166.461 289.225 166.461H284.628V154.975H289.273ZM285.941 165.211H289.289C290.133 165.211 290.902 165.019 291.596 164.634C292.29 164.245 292.838 163.708 293.238 163.024C293.644 162.341 293.847 161.577 293.847 160.734C293.847 159.89 293.641 159.129 293.23 158.451C292.819 157.767 292.264 157.228 291.564 156.833C290.865 156.438 290.09 156.24 289.241 156.24H285.941V165.211Z" fill="#6D6E71"/>
<path d="M304.258 166.461V156.224H301.927V154.975H305.548V166.461H304.258Z" fill="#6D6E71"/>
<path d="M312.836 166.509C312.307 166.509 311.749 166.434 311.162 166.284C310.58 166.135 310.054 165.935 309.584 165.684L310.113 164.634C310.487 164.853 310.906 165.027 311.37 165.155C311.84 165.278 312.299 165.339 312.748 165.339C313.875 165.339 314.745 164.936 315.359 164.13C315.973 163.318 316.28 162.213 316.28 160.814C316.28 160.552 316.275 160.355 316.264 160.221C316.013 160.899 315.589 161.42 314.991 161.783C314.393 162.146 313.674 162.328 312.836 162.328C311.709 162.328 310.82 162.002 310.169 161.35C309.517 160.699 309.192 159.821 309.192 158.715C309.192 157.546 309.544 156.619 310.249 155.936C310.954 155.252 311.896 154.911 313.076 154.911C314.475 154.911 315.57 155.397 316.36 156.368C317.156 157.34 317.554 158.707 317.554 160.469C317.554 161.671 317.362 162.728 316.977 163.641C316.598 164.554 316.053 165.262 315.343 165.764C314.633 166.26 313.797 166.509 312.836 166.509ZM313.06 161.206C313.653 161.206 314.168 161.089 314.606 160.854C315.044 160.619 315.38 160.307 315.615 159.917C315.85 159.522 315.963 159.094 315.952 158.635C315.963 158.24 315.864 157.85 315.655 157.466C315.447 157.076 315.132 156.756 314.71 156.505C314.289 156.248 313.773 156.12 313.164 156.12C312.342 156.12 311.68 156.355 311.178 156.825C310.676 157.295 310.425 157.93 310.425 158.731C310.425 159.495 310.663 160.098 311.138 160.541C311.613 160.985 312.254 161.206 313.06 161.206Z" fill="#6D6E71"/>
<path d="M323.392 166.509C322.864 166.509 322.306 166.434 321.718 166.284C321.136 166.135 320.61 165.935 320.14 165.684L320.669 164.634C321.043 164.853 321.462 165.027 321.926 165.155C322.396 165.278 322.856 165.339 323.304 165.339C324.431 165.339 325.301 164.936 325.915 164.13C326.529 163.318 326.836 162.213 326.836 160.814C326.836 160.552 326.831 160.355 326.82 160.221C326.569 160.899 326.145 161.42 325.547 161.783C324.949 162.146 324.231 162.328 323.392 162.328C322.266 162.328 321.376 162.002 320.725 161.35C320.074 160.699 319.748 159.821 319.748 158.715C319.748 157.546 320.1 156.619 320.805 155.936C321.51 155.252 322.452 154.911 323.633 154.911C325.032 154.911 326.126 155.397 326.917 156.368C327.712 157.34 328.11 158.707 328.11 160.469C328.11 161.671 327.918 162.728 327.533 163.641C327.154 164.554 326.609 165.262 325.899 165.764C325.189 166.26 324.353 166.509 323.392 166.509ZM323.617 161.206C324.209 161.206 324.725 161.089 325.162 160.854C325.6 160.619 325.937 160.307 326.172 159.917C326.407 159.522 326.519 159.094 326.508 158.635C326.519 158.24 326.42 157.85 326.212 157.466C326.003 157.076 325.688 156.756 325.267 156.505C324.845 156.248 324.329 156.12 323.721 156.12C322.898 156.12 322.236 156.355 321.734 156.825C321.232 157.295 320.981 157.93 320.981 158.731C320.981 159.495 321.219 160.098 321.694 160.541C322.169 160.985 322.81 161.206 323.617 161.206Z" fill="#6D6E71"/>
<path d="M333.948 166.509C333.42 166.509 332.862 166.434 332.274 166.284C331.692 166.135 331.166 165.935 330.696 165.684L331.225 164.634C331.599 164.853 332.018 165.027 332.483 165.155C332.953 165.278 333.412 165.339 333.86 165.339C334.987 165.339 335.857 164.936 336.471 164.13C337.086 163.318 337.393 162.213 337.393 160.814C337.393 160.552 337.387 160.355 337.377 160.221C337.126 160.899 336.701 161.42 336.103 161.783C335.505 162.146 334.787 162.328 333.948 162.328C332.822 162.328 331.933 162.002 331.281 161.35C330.63 160.699 330.304 159.821 330.304 158.715C330.304 157.546 330.656 156.619 331.361 155.936C332.066 155.252 333.009 154.911 334.189 154.911C335.588 154.911 336.682 155.397 337.473 156.368C338.268 157.34 338.666 158.707 338.666 160.469C338.666 161.671 338.474 162.728 338.089 163.641C337.71 164.554 337.166 165.262 336.455 165.764C335.745 166.26 334.91 166.509 333.948 166.509ZM334.173 161.206C334.765 161.206 335.281 161.089 335.719 160.854C336.156 160.619 336.493 160.307 336.728 159.917C336.963 159.522 337.075 159.094 337.064 158.635C337.075 158.24 336.976 157.85 336.768 157.466C336.56 157.076 336.245 156.756 335.823 156.505C335.401 156.248 334.886 156.12 334.277 156.12C333.454 156.12 332.792 156.355 332.29 156.825C331.788 157.295 331.537 157.93 331.537 158.731C331.537 159.495 331.775 160.098 332.25 160.541C332.726 160.985 333.366 161.206 334.173 161.206Z" fill="#6D6E71"/>
<defs>
<linearGradient id="paint0_linear" x1="67.7991" y1="16.0896" x2="104.897" y2="5.77534" gradientUnits="userSpaceOnUse">
<stop stop-color="#F69923"/>
<stop offset="0.3123" stop-color="#F79A23"/>
<stop offset="0.8383" stop-color="#E97826"/>
</linearGradient>
<linearGradient id="paint1_linear" x1="-13.4015" y1="182.587" x2="62.0525" y2="20.7695" gradientUnits="userSpaceOnUse">
<stop offset="0.3233" stop-color="#9E2064"/>
<stop offset="0.6302" stop-color="#C92037"/>
<stop offset="0.7514" stop-color="#CD2335"/>
<stop offset="1" stop-color="#E97826"/>
</linearGradient>
<linearGradient id="paint2_linear" x1="11.9372" y1="170.622" x2="56.9005" y2="74.1942" gradientUnits="userSpaceOnUse">
<stop stop-color="#282662"/>
<stop offset="0.0954839" stop-color="#662E8D"/>
<stop offset="0.7882" stop-color="#9F2064"/>
<stop offset="0.9487" stop-color="#CD2032"/>
</linearGradient>
<linearGradient id="paint3_linear" x1="-10.6708" y1="172.796" x2="64.7832" y2="10.9783" gradientUnits="userSpaceOnUse">
<stop offset="0.3233" stop-color="#9E2064"/>
<stop offset="0.6302" stop-color="#C92037"/>
<stop offset="0.7514" stop-color="#CD2335"/>
<stop offset="1" stop-color="#E97826"/>
</linearGradient>
<linearGradient id="paint4_linear" x1="-2.97895" y1="162.015" x2="36.6744" y2="76.9747" gradientUnits="userSpaceOnUse">
<stop stop-color="#282662"/>
<stop offset="0.0954839" stop-color="#662E8D"/>
<stop offset="0.7882" stop-color="#9F2064"/>
<stop offset="0.9487" stop-color="#CD2032"/>
</linearGradient>
<linearGradient id="paint5_linear" x1="6.07638" y1="180.605" x2="81.5305" y2="18.7877" gradientUnits="userSpaceOnUse">
<stop offset="0.3233" stop-color="#9E2064"/>
<stop offset="0.6302" stop-color="#C92037"/>
<stop offset="0.7514" stop-color="#CD2335"/>
<stop offset="1" stop-color="#E97826"/>
</linearGradient>
<linearGradient id="paint6_linear" x1="0.563913" y1="190.255" x2="76.0179" y2="28.4378" gradientUnits="userSpaceOnUse">
<stop offset="0.3233" stop-color="#9E2064"/>
<stop offset="0.6302" stop-color="#C92037"/>
<stop offset="0.7514" stop-color="#CD2335"/>
<stop offset="1" stop-color="#E97826"/>
</linearGradient>
<linearGradient id="paint7_linear" x1="11.0576" y1="182.928" x2="86.5127" y2="21.11" gradientUnits="userSpaceOnUse">
<stop offset="0.3233" stop-color="#9E2064"/>
<stop offset="0.6302" stop-color="#C92037"/>
<stop offset="0.7514" stop-color="#CD2335"/>
<stop offset="1" stop-color="#E97826"/>
</linearGradient>
<linearGradient id="paint8_linear" x1="10.3727" y1="182.923" x2="86.0143" y2="20.7247" gradientUnits="userSpaceOnUse">
<stop offset="0.3233" stop-color="#9E2064"/>
<stop offset="0.6302" stop-color="#C92037"/>
<stop offset="0.7514" stop-color="#CD2335"/>
<stop offset="1" stop-color="#E97826"/>
</linearGradient>
<clipPath id="clip0">
<rect width="437" height="177.24" fill="white" transform="translate(1 1)"/>
</clipPath>
</defs>
</svg>
