<?xml version="1.0" encoding="UTF-8" standalone="no"?>
<!-- Generator: Adobe Illustrator 19.0.0, SVG Export Plug-In . SVG Version: 6.00 Build 0)  -->

<svg
   xmlns:dc="http://purl.org/dc/elements/1.1/"
   xmlns:cc="http://creativecommons.org/ns#"
   xmlns:rdf="http://www.w3.org/1999/02/22-rdf-syntax-ns#"
   xmlns:svg="http://www.w3.org/2000/svg"
   xmlns="http://www.w3.org/2000/svg"
   xmlns:sodipodi="http://sodipodi.sourceforge.net/DTD/sodipodi-0.dtd"
   xmlns:inkscape="http://www.inkscape.org/namespaces/inkscape"
   version="1.1"
   id="Apache_Logo_Horizontal"
   x="0px"
   y="0px"
   viewBox="0 0 537 50.999999"
   enable-background="new 0 0 9835 1713.9"
   xml:space="preserve"
   inkscape:version="0.91 r13725"
   sodipodi:docname="asf_logo_wide2.svg"
   width="537"
   height="51"
   inkscape:export-filename="/Users/marvin/projects/asfsite/content/foundation/press/kit/asfwide2.png"
   inkscape:export-xdpi="90"
   inkscape:export-ydpi="90"><metadata
     id="metadata4302"><rdf:RDF><cc:Work
         rdf:about=""><dc:format>image/svg+xml</dc:format><dc:type
           rdf:resource="http://purl.org/dc/dcmitype/StillImage" /><dc:title></dc:title></cc:Work></rdf:RDF></metadata><defs
     id="defs4300"><clipPath
       clipPathUnits="userSpaceOnUse"
       id="clipPath5245"><rect
         style="opacity:0.81000001;fill:none;fill-rule:evenodd;stroke:none;stroke-width:1px;stroke-linecap:butt;stroke-linejoin:miter;stroke-opacity:1"
         id="rect5247"
         width="40.072762"
         height="49.926731"
         x="2.146755"
         y="2.1934664" /></clipPath></defs><sodipodi:namedview
     pagecolor="#ffffff"
     bordercolor="#666666"
     borderopacity="1"
     objecttolerance="10"
     gridtolerance="10"
     guidetolerance="10"
     inkscape:pageopacity="0"
     inkscape:pageshadow="2"
     inkscape:window-width="1350"
     inkscape:window-height="649"
     id="namedview4298"
     showgrid="false"
     inkscape:zoom="4"
     inkscape:cx="54.811361"
     inkscape:cy="48.962514"
     inkscape:window-x="43"
     inkscape:window-y="0"
     inkscape:window-maximized="0"
     inkscape:current-layer="layer3" /><linearGradient
     id="SVGID_1_"
     gradientUnits="userSpaceOnUse"
     x1="-4229.6655"
     y1="-4143.6401"
     x2="-3987.5886"
     y2="-3860.573"
     gradientTransform="matrix(0.01388094,-0.02976878,0.02976878,0.01388094,214.03695,-60.70972)"><stop
       offset="0"
       style="stop-color:#F69923"
       id="stop4081" /><stop
       offset="0.3123"
       style="stop-color:#F79A23"
       id="stop4083" /><stop
       offset="0.8383"
       style="stop-color:#E97826"
       id="stop4085" /></linearGradient><linearGradient
     id="SVGID_2_"
     gradientUnits="userSpaceOnUse"
     x1="-6021.2769"
     y1="-4174.8843"
     x2="-4294.1865"
     y2="-4174.8843"
     gradientTransform="matrix(0.01388094,-0.02976878,0.02976878,0.01388094,214.03695,-60.70972)"><stop
       offset="0.3233"
       style="stop-color:#9E2064"
       id="stop4106" /><stop
       offset="0.6302"
       style="stop-color:#C92037"
       id="stop4108" /><stop
       offset="0.7514"
       style="stop-color:#CD2335"
       id="stop4110" /><stop
       offset="1"
       style="stop-color:#E97826"
       id="stop4112" /></linearGradient><linearGradient
     id="SVGID_3_"
     gradientUnits="userSpaceOnUse"
     x1="-5812.7939"
     y1="-4001.6594"
     x2="-4783.6157"
     y2="-4001.6594"
     gradientTransform="matrix(0.01388094,-0.02976878,0.02976878,0.01388094,214.03695,-60.70972)"><stop
       offset="0"
       style="stop-color:#282662"
       id="stop4117" /><stop
       offset="9.548390e-02"
       style="stop-color:#662E8D"
       id="stop4119" /><stop
       offset="0.7882"
       style="stop-color:#9F2064"
       id="stop4121" /><stop
       offset="0.9487"
       style="stop-color:#CD2032"
       id="stop4123" /></linearGradient><linearGradient
     id="SVGID_4_"
     gradientUnits="userSpaceOnUse"
     x1="-5924.2744"
     y1="-4190.9775"
     x2="-4197.1841"
     y2="-4190.9775"
     gradientTransform="matrix(0.01388094,-0.02976878,0.02976878,0.01388094,214.03695,-60.70972)"><stop
       offset="0.3233"
       style="stop-color:#9E2064"
       id="stop4128" /><stop
       offset="0.6302"
       style="stop-color:#C92037"
       id="stop4130" /><stop
       offset="0.7514"
       style="stop-color:#CD2335"
       id="stop4132" /><stop
       offset="1"
       style="stop-color:#E97826"
       id="stop4134" /></linearGradient><linearGradient
     id="SVGID_5_"
     gradientUnits="userSpaceOnUse"
     x1="-5798.3159"
     y1="-4167.6108"
     x2="-4890.6782"
     y2="-4167.6108"
     gradientTransform="matrix(0.01388094,-0.02976878,0.02976878,0.01388094,214.03695,-60.70972)"><stop
       offset="0"
       style="stop-color:#282662"
       id="stop4139" /><stop
       offset="9.548390e-02"
       style="stop-color:#662E8D"
       id="stop4141" /><stop
       offset="0.7882"
       style="stop-color:#9F2064"
       id="stop4143" /><stop
       offset="0.9487"
       style="stop-color:#CD2032"
       id="stop4145" /></linearGradient><linearGradient
     id="SVGID_6_"
     gradientUnits="userSpaceOnUse"
     x1="-5924.2744"
     y1="-4012.23"
     x2="-4197.1841"
     y2="-4012.23"
     gradientTransform="matrix(0.01388094,-0.02976878,0.02976878,0.01388094,214.03695,-60.70972)"><stop
       offset="0.3233"
       style="stop-color:#9E2064"
       id="stop4150" /><stop
       offset="0.6302"
       style="stop-color:#C92037"
       id="stop4152" /><stop
       offset="0.7514"
       style="stop-color:#CD2335"
       id="stop4154" /><stop
       offset="1"
       style="stop-color:#E97826"
       id="stop4156" /></linearGradient><linearGradient
     id="SVGID_7_"
     gradientUnits="userSpaceOnUse"
     x1="-6031.4116"
     y1="-4021.106"
     x2="-4304.3213"
     y2="-4021.106"
     gradientTransform="matrix(0.01388094,-0.02976878,0.02976878,0.01388094,214.03695,-60.70972)"><stop
       offset="0.3233"
       style="stop-color:#9E2064"
       id="stop4161" /><stop
       offset="0.6302"
       style="stop-color:#C92037"
       id="stop4163" /><stop
       offset="0.7514"
       style="stop-color:#CD2335"
       id="stop4165" /><stop
       offset="1"
       style="stop-color:#E97826"
       id="stop4167" /></linearGradient><linearGradient
     id="SVGID_8_"
     gradientUnits="userSpaceOnUse"
     x1="-5924.2744"
     y1="-3959.0669"
     x2="-4197.1841"
     y2="-3959.0669"
     gradientTransform="matrix(0.01388094,-0.02976878,0.02976878,0.01388094,214.03695,-60.70972)"><stop
       offset="0.3233"
       style="stop-color:#9E2064"
       id="stop4176" /><stop
       offset="0.6302"
       style="stop-color:#C92037"
       id="stop4178" /><stop
       offset="0.7514"
       style="stop-color:#CD2335"
       id="stop4180" /><stop
       offset="1"
       style="stop-color:#E97826"
       id="stop4182" /></linearGradient><linearGradient
     id="SVGID_9_"
     gradientUnits="userSpaceOnUse"
     x1="-5924.2744"
     y1="-3965.1499"
     x2="-4197.1841"
     y2="-3965.1499"
     gradientTransform="matrix(0.01388094,-0.02976878,0.02976878,0.01388094,214.03695,-60.70972)"><stop
       offset="0.3233"
       style="stop-color:#9E2064"
       id="stop4191" /><stop
       offset="0.6302"
       style="stop-color:#C92037"
       id="stop4193" /><stop
       offset="0.7514"
       style="stop-color:#CD2335"
       id="stop4195" /><stop
       offset="1"
       style="stop-color:#E97826"
       id="stop4197" /></linearGradient><linearGradient
     id="SVGID_10_"
     gradientUnits="userSpaceOnUse"
     x1="-4954.02"
     y1="-3966.3701"
     x2="-4572.2764"
     y2="-3966.3701"
     gradientTransform="matrix(0.01388094,-0.02976878,0.02976878,0.01388094,214.03695,-60.70972)"><stop
       offset="0.3233"
       style="stop-color:#9E2064"
       id="stop4206" /><stop
       offset="0.6302"
       style="stop-color:#C92037"
       id="stop4208" /><stop
       offset="0.7514"
       style="stop-color:#CD2335"
       id="stop4210" /><stop
       offset="1"
       style="stop-color:#E97826"
       id="stop4212" /></linearGradient><g
     inkscape:groupmode="layer"
     id="layer3"
     inkscape:label="white background"
     sodipodi:insensitive="true"><rect
       style="opacity:0.79000005;fill:#ffffff;stroke:none"
       id="rect5250"
       width="541"
       height="51"
       x="1.5829096e-09"
       y="-0.25" /></g><g
     inkscape:groupmode="layer"
     id="layer1"
     inkscape:label="Layer 1"
     style="display:inline"
     sodipodi:insensitive="true"><path
       d="m 46.564977,42.313848 13.407841,-32.048866 2.573284,0 13.407842,32.048866 -3.385768,0 -4.155094,-10.022042 -14.399315,0 -4.106279,10.022042 -3.342511,0 z M 61.283868,13.96501 54.69102,29.810674 l 13.001549,0 -6.408701,-15.845664 z"
       id="path4068"
       inkscape:connector-curvature="0"
       style="fill:#d22128" /><path
       d="m 79.415614,42.313848 0,-32.048866 13.272413,0 c 5.509398,0 9.480343,5.10312 9.480343,10.06538 0,5.238551 -3.699983,10.157475 -9.209484,10.157475 l -10.428266,0 0,11.826011 -3.115006,0 z m 3.115006,-14.626768 10.244123,0 c 3.79216,0 6.229906,-3.477921 6.229906,-7.356718 0,-4.019653 -2.979569,-7.27004 -6.500765,-7.27004 l -9.973264,0 0,14.626758 z"
       id="path4070"
       inkscape:connector-curvature="0"
       style="fill:#d22128" /><path
       d="m 100.41314,42.313848 13.40793,-32.048866 2.57318,0 13.40785,32.048866 -3.38577,0 -4.1551,-10.022042 -14.39931,0 -4.10628,10.022042 -3.3425,0 z m 14.71343,-28.348838 -6.59285,15.845664 13.00155,0 -6.4087,-15.845664 z"
       id="path4072"
       inkscape:connector-curvature="0"
       style="fill:#d22128" /><path
       d="m 144.96519,10.086213 c 5.68818,0 9.83781,2.887434 11.82603,6.999179 l -2.52993,1.533097 c -2.03147,-4.24176 -6.00232,-5.688181 -9.48026,-5.688181 -7.67638,0 -11.86938,6.863738 -11.86938,13.315769 0,7.085856 5.18982,13.494549 12.00481,13.494549 3.61338,0 7.85509,-1.803969 9.88654,-5.959053 l 2.61665,1.354326 c -2.07482,4.783494 -7.76301,7.44882 -12.68197,7.44882 -8.8032,0 -14.9843,-8.396854 -14.9843,-16.522827 0,-7.719683 5.54731,-15.975679 15.21181,-15.975679 z"
       id="path4074"
       inkscape:connector-curvature="0"
       style="fill:#d22128" /><path
       d="m 187.10657,10.264982 0,32.048866 -3.15837,0 0,-14.984305 -19.00396,0 0,14.984305 -3.1149,0 0,-32.048866 3.1149,0 0,14.263804 19.00396,0 0,-14.263804 3.15837,0 z"
       id="path4076"
       inkscape:connector-curvature="0"
       style="fill:#d22128" /><path
       d="m 215.87792,39.513091 0,2.800757 -21.53379,0 0,-32.048866 21.12748,0 0,2.800757 -18.01257,0 0,11.555139 15.71026,0 0,2.65991 -15.71026,0 0,12.232303 18.41888,0 z"
       id="path4078"
       inkscape:connector-curvature="0"
       style="fill:#d22128" /><g
       id="g5205"
       clip-path="url(#clipPath5245)"
       transform="translate(2,-1.0606602)"><path
         style="fill:url(#SVGID_1_)"
         inkscape:connector-curvature="0"
         id="path4087"
         d="M 34.710333,3.1746244 C 33.826741,3.696887 32.358538,5.171695 30.607838,7.3100018 l 1.60945,3.0382992 c 1.129938,-1.6160449 2.276238,-3.0678598 3.432463,-4.3094616 0.08867,-0.098538 0.134693,-0.1445213 0.134693,-0.1445213 -0.04632,0.049269 -0.08873,0.098538 -0.134693,0.1445213 -0.37448,0.413871 -1.510914,1.7375812 -3.225521,4.3718746 1.648855,-0.08212 4.187919,-0.4204399 6.253967,-0.7718975 0.614206,-3.4488794 -0.604403,-5.0255156 -0.604403,-5.0255156 0,0 -1.547068,-2.5127569 -3.363461,-1.4386765 z" /><path
         style="fill:none"
         inkscape:connector-curvature="0"
         id="path4089"
         d="m 31.984059,20.497874 c 0.01324,-0.003 0.02286,-0.003 0.03609,-0.0066 l -0.233229,0.02628 c -0.01324,0.0066 -0.02646,0.01311 -0.0391,0.01974 0.07881,-0.0131 0.157672,-0.02629 0.236479,-0.03941 z" /><path
         style="fill:none"
         inkscape:connector-curvature="0"
         id="path4091"
         d="m 30.341761,25.937255 c -0.131385,0.02953 -0.266076,0.05258 -0.404017,0.07226 0.137941,-0.01974 0.272632,-0.04272 0.404017,-0.07226 z" /><path
         style="fill:none"
         inkscape:connector-curvature="0"
         id="path4093"
         d="m 19.180514,38.143015 c 0.01624,-0.04597 0.03309,-0.09198 0.05233,-0.134674 0.354689,-0.936122 0.706188,-1.842689 1.051071,-2.729541 0.390843,-0.991967 0.775187,-1.95437 1.156165,-2.887208 0.400769,-0.982111 0.798169,-1.931378 1.185764,-2.851076 0.410573,-0.962404 0.811342,-1.888678 1.208743,-2.7821 0.321903,-0.725908 0.640557,-1.428824 0.952593,-2.108747 0.105098,-0.226637 0.206942,-0.449996 0.312036,-0.673354 0.203634,-0.440142 0.407266,-0.873714 0.60765,-1.294148 0.183963,-0.390873 0.367864,-0.771893 0.551825,-1.146342 0.05895,-0.124821 0.121517,-0.249636 0.180653,-0.371166 0.0096,-0.01974 0.01985,-0.03941 0.02948,-0.05913 l -0.197076,0.02298 -0.157673,-0.308752 c -0.01624,0.02953 -0.02947,0.05914 -0.04571,0.08869 -0.282499,0.561673 -0.56169,1.126635 -0.84088,1.698166 -0.160921,0.32846 -0.318595,0.66021 -0.479575,0.995244 -0.440111,0.92299 -0.870417,1.855827 -1.297415,2.791954 -0.430306,0.945982 -0.850687,1.898527 -1.26457,2.854362 -0.407325,0.936128 -0.804726,1.875534 -1.19232,2.808377 -0.387595,0.932838 -0.768631,1.86568 -1.139803,2.788663 -0.387593,0.965689 -0.765322,1.921525 -1.129936,2.867506 -0.08212,0.213498 -0.16423,0.427004 -0.246344,0.637217 -0.292305,0.762039 -0.578054,1.517515 -0.857244,2.259845 l 0.246344,0.48941 0.220057,-0.02298 c 0.0066,-0.02298 0.01624,-0.04597 0.02286,-0.06569 0.364615,-0.988681 0.719363,-1.941231 1.070802,-2.8675 z" /><path
         style="fill:none"
         inkscape:connector-curvature="0"
         id="path4095"
         d="m 29.839207,26.025938 0,0 c 0,0 0,0 0,0 0,0 0,0 0,0 z" /><path
         style="fill:#be202e"
         inkscape:connector-curvature="0"
         id="path4097"
         d="m 29.303804,28.679934 c -0.206941,0.03614 -0.417131,0.07227 -0.633939,0.111686 0,0 -0.006,0 -0.006,0.003 0.108404,-0.01642 0.216808,-0.03284 0.32521,-0.05258 0.105098,-0.01974 0.21019,-0.0394 0.312037,-0.0624 z" /><path
         style="opacity:0.35;fill:#be202e"
         inkscape:connector-curvature="0"
         id="path4099"
         d="m 29.303804,28.679934 c -0.206941,0.03614 -0.417131,0.07227 -0.633939,0.111686 0,0 -0.006,0 -0.006,0.003 0.108404,-0.01642 0.216808,-0.03284 0.32521,-0.05258 0.105098,-0.01974 0.21019,-0.0394 0.312037,-0.0624 z" /><path
         style="fill:#be202e"
         inkscape:connector-curvature="0"
         id="path4101"
         d="m 29.842513,26.022654 c 0,0.003 0,0.003 0,0 -0.006,0 -0.006,0.003 -0.006,0.003 0.03309,-0.003 0.069,-0.0098 0.101852,-0.01644 0.137941,-0.01974 0.272573,-0.04272 0.403956,-0.07226 -0.164229,0.02953 -0.331707,0.05914 -0.502494,0.0854 l 0,0 0,0 z" /><path
         style="opacity:0.35;fill:#be202e"
         inkscape:connector-curvature="0"
         id="path4103"
         d="m 29.842513,26.022654 c 0,0.003 0,0.003 0,0 -0.006,0 -0.006,0.003 -0.006,0.003 0.03309,-0.003 0.069,-0.0098 0.101852,-0.01644 0.137941,-0.01974 0.272573,-0.04272 0.403956,-0.07226 -0.164229,0.02953 -0.331707,0.05914 -0.502494,0.0854 l 0,0 0,0 z" /><path
         style="fill:url(#SVGID_2_)"
         inkscape:connector-curvature="0"
         id="path4114"
         d="m 27.474237,18.195331 c 0.489441,-0.91313 0.985439,-1.806557 1.484685,-2.676987 0.518978,-0.903282 1.044514,-1.78028 1.576607,-2.624439 0.03309,-0.04927 0.06245,-0.101828 0.09529,-0.151092 0.525535,-0.831015 1.054378,-1.629183 1.58978,-2.394512 L 30.611086,7.3100018 c -0.121519,0.1478072 -0.243037,0.2989049 -0.364615,0.449996 -0.463092,0.578101 -0.945975,1.1989015 -1.438665,1.8591111 -0.55838,0.7423301 -1.129876,1.5372211 -1.711298,2.3715191 -0.535401,0.768608 -1.080666,1.57663 -1.625874,2.410936 -0.463152,0.709484 -0.929553,1.441961 -1.392705,2.190861 -0.01624,0.0263 -0.03309,0.05583 -0.05233,0.0854 l 2.092334,4.135375 c 0.44342,-0.886857 0.896706,-1.760571 1.356549,-2.61787 z" /><path
         style="fill:url(#SVGID_3_)"
         inkscape:connector-curvature="0"
         id="path4125"
         d="m 17.935615,41.496641 c -0.275881,0.762038 -0.55507,1.537214 -0.834261,2.32882 -0.006,0.01311 -0.0066,0.02298 -0.01324,0.03614 -0.0391,0.111675 -0.07881,0.223353 -0.118215,0.335035 -0.18727,0.535395 -0.3515,1.014952 -0.72592,2.108741 0.617516,0.282481 1.113454,1.021527 1.579913,1.862401 -0.04933,-0.870435 -0.410573,-1.688312 -1.093781,-2.322251 3.041559,0.13796 5.662739,-0.630653 7.015979,-2.854361 0.121519,-0.197075 0.233231,-0.407296 0.331769,-0.627369 -0.617515,0.781751 -1.37953,1.110215 -2.814947,1.031381 -0.006,0 -0.0066,0.003 -0.0096,0.003 0.006,0 0.0066,-0.003 0.0096,-0.003 2.115316,-0.945976 3.176252,-1.855827 4.115672,-3.360196 0.223363,-0.358027 0.436862,-0.745616 0.660227,-1.179187 -1.8493,1.898525 -3.994152,2.44049 -6.250718,2.029909 l -1.694875,0.187228 c -0.05233,0.137953 -0.105098,0.279197 -0.157672,0.423719 z" /><path
         style="fill:url(#SVGID_4_)"
         inkscape:connector-curvature="0"
         id="path4136"
         d="m 18.727227,37.702874 c 0.364614,-0.945982 0.742343,-1.901818 1.129938,-2.867506 0.371171,-0.922983 0.752148,-1.855827 1.139742,-2.788664 0.387595,-0.936128 0.788302,-1.872255 1.192321,-2.808376 0.413883,-0.952551 0.834323,-1.905096 1.264629,-2.854362 0.423689,-0.936127 0.857303,-1.868965 1.297415,-2.791954 0.157671,-0.331751 0.318593,-0.663501 0.479574,-0.995245 0.275883,-0.571532 0.558382,-1.136494 0.840881,-1.698165 0.01624,-0.02953 0.02947,-0.05914 0.04573,-0.08869 L 24.02512,16.674535 c -0.03309,0.05583 -0.06894,0.111675 -0.101792,0.167514 -0.489441,0.798176 -0.972264,1.612767 -1.448531,2.443781 -0.482882,0.840874 -0.955841,1.698167 -1.415684,2.565312 -0.390902,0.732476 -0.771941,1.471528 -1.139803,2.217144 -0.07556,0.151091 -0.147806,0.302182 -0.220056,0.449995 -0.456595,0.939406 -0.867168,1.845972 -1.241588,2.719686 -0.42375,0.988682 -0.794922,1.931378 -1.12007,2.828085 -0.2135,0.587954 -0.410576,1.156196 -0.587981,1.704734 -0.147806,0.466419 -0.285747,0.932844 -0.41713,1.399263 -0.312037,1.097072 -0.581362,2.19086 -0.804726,3.27808 l 2.10214,4.1518 c 0.27919,-0.742331 0.56169,-1.497805 0.857304,-2.259844 0.07556,-0.210213 0.157673,-0.423718 0.239787,-0.637216 z" /><path
         style="fill:url(#SVGID_5_)"
         inkscape:connector-curvature="0"
         id="path4147"
         d="m 15.491841,36.595941 c -0.262768,1.330285 -0.453286,2.654 -0.545267,3.967856 -0.006,0.04601 -0.0066,0.09198 -0.0096,0.13796 -0.65698,-1.051088 -2.414238,-2.079185 -2.41099,-2.06933 1.258072,1.822979 2.213913,3.636106 2.355103,5.413101 -0.673341,0.13796 -1.596337,-0.06241 -2.663831,-0.453279 1.113514,1.021527 1.947777,1.304002 2.272989,1.379553 -1.021533,0.06241 -2.085778,0.765324 -3.156581,1.573345 1.566818,-0.640507 2.834696,-0.893421 3.741268,-0.686491 -1.438666,4.072969 -2.880638,8.569653 -4.322612,13.342248 0.44342,-0.131385 0.706187,-0.427004 0.853995,-0.831014 0.25621,-0.863861 1.964259,-6.536453 4.637956,-13.989326 0.07556,-0.213505 0.151055,-0.42372 0.229922,-0.640509 0.02286,-0.05914 0.04271,-0.118251 0.06568,-0.177368 0.28244,-0.781745 0.574805,-1.57992 0.876977,-2.394511 0.06899,-0.183938 0.137941,-0.371166 0.20694,-0.558388 0,-0.003 0.006,-0.0066 0.006,-0.0098 l -2.102189,-4.151802 c -0.01324,0.04927 -0.02286,0.09853 -0.03309,0.147806 z" /><path
         style="fill:url(#SVGID_6_)"
         inkscape:connector-curvature="0"
         id="path4158"
         d="m 26.43959,21.161374 c -0.05895,0.12153 -0.121518,0.246345 -0.180653,0.371166 -0.180652,0.37445 -0.364615,0.755469 -0.551824,1.146342 -0.200384,0.420434 -0.404017,0.854007 -0.60765,1.294148 -0.101851,0.223359 -0.206942,0.446717 -0.312037,0.673354 -0.312037,0.679923 -0.63069,1.382839 -0.952593,2.108747 -0.3974,0.893422 -0.798168,1.819697 -1.208743,2.7821 -0.390842,0.916414 -0.784995,1.86568 -1.185763,2.851078 -0.380977,0.932836 -0.765323,1.895241 -1.156165,2.887206 -0.348191,0.886853 -0.699632,1.79342 -1.051071,2.729541 -0.01624,0.04597 -0.03309,0.09198 -0.05233,0.134675 -0.351439,0.929552 -0.706188,1.882102 -1.064245,2.857646 -0.0066,0.02298 -0.01624,0.04595 -0.02286,0.06569 l 1.694875,-0.187229 c -0.03309,-0.0066 -0.06568,-0.0098 -0.101851,-0.01642 2.023395,-0.252914 4.716763,-1.763858 6.45435,-3.632823 0.801477,-0.860576 1.527397,-1.875534 2.20074,-3.064576 0.499245,-0.883574 0.972264,-1.865686 1.418932,-2.94962 0.390903,-0.94926 0.765383,-1.974072 1.129938,-3.087568 -0.466401,0.246344 -0.998494,0.423719 -1.586473,0.548534 -0.101851,0.02298 -0.206941,0.04271 -0.315344,0.06241 -0.105098,0.01974 -0.213499,0.03616 -0.325151,0.05258 l 0,0 0,0 c 0,0 0.006,0 0.006,-0.003 1.888702,-0.725907 3.077714,-2.128453 3.944883,-3.846327 -0.495997,0.338319 -1.303973,0.781746 -2.272988,0.995251 -0.131384,0.02953 -0.266017,0.05258 -0.404017,0.07226 -0.03309,0.003 -0.06894,0.0098 -0.101792,0.01642 l 0,0 0,0 c 0,0 0.006,0 0.006,0 0,0 0,0 0.006,0 l 0,0 c 0.653609,-0.272627 1.208742,-0.581386 1.688317,-0.942698 0.101792,-0.07883 0.203633,-0.157661 0.298863,-0.239774 0.147866,-0.124821 0.285807,-0.259489 0.417192,-0.400727 0.08537,-0.08869 0.167478,-0.180658 0.246344,-0.275912 0.18721,-0.223359 0.364614,-0.466419 0.528845,-0.725908 0.04932,-0.07883 0.09853,-0.160951 0.147805,-0.24635 0.06238,-0.121531 0.121518,-0.239776 0.180653,-0.354743 0.262768,-0.528826 0.476266,-1.001819 0.643746,-1.418968 0.08543,-0.20693 0.157671,-0.400728 0.220114,-0.578096 0.02646,-0.07227 0.04933,-0.141244 0.07225,-0.206935 0.06568,-0.20036 0.121519,-0.377735 0.164229,-0.532111 0.06568,-0.233212 0.101851,-0.417156 0.124827,-0.551823 l 0,0 0,0 c -0.06241,0.04926 -0.137908,0.101815 -0.220022,0.151085 -0.568248,0.341605 -1.547069,0.650362 -2.335432,0.794891 l 1.553685,-0.170805 -1.553685,0.170805 c -0.01324,0.003 -0.02286,0.003 -0.03611,0.0066 -0.07886,0.0131 -0.157674,0.02628 -0.236539,0.03941 0.01324,-0.0066 0.02646,-0.01311 0.0397,-0.01974 l -5.317856,0.581381 c -0.0066,0.01974 -0.01624,0.03941 -0.02646,0.05913 z" /><path
         style="fill:url(#SVGID_7_)"
         inkscape:connector-curvature="0"
         id="path4169"
         d="m 32.427479,10.410714 c -0.472959,0.725908 -0.988627,1.550354 -1.547069,2.483191 -0.02947,0.04927 -0.05895,0.09854 -0.08867,0.147812 -0.479575,0.808023 -0.988687,1.694881 -1.524089,2.667134 -0.463092,0.83759 -0.945975,1.73758 -1.445222,2.706553 -0.436865,0.844155 -0.886842,1.737582 -1.349994,2.683557 l 5.317855,-0.581379 c 1.550318,-0.71277 2.243392,-1.356562 2.913486,-2.289404 0.177343,-0.256199 0.357997,-0.525542 0.5354,-0.804738 0.545268,-0.854007 1.080668,-1.79342 1.560183,-2.726256 0.463152,-0.899998 0.870417,-1.796704 1.182514,-2.601448 0.200324,-0.512404 0.357997,-0.988675 0.469708,-1.405831 0.09523,-0.367881 0.174036,-0.7193384 0.233171,-1.0543731 -2.069294,0.3547422 -4.60836,0.6930611 -6.257274,0.7751821 z" /><path
         style="fill:#be202e"
         inkscape:connector-curvature="0"
         id="path4171"
         d="m 28.991769,28.739056 c -0.105098,0.01974 -0.2135,0.03615 -0.325212,0.05258 l 0,0 c 0.108404,-0.01644 0.216808,-0.03285 0.325212,-0.05258 z" /><path
         style="opacity:0.35;fill:#be202e"
         inkscape:connector-curvature="0"
         id="path4173"
         d="m 28.991769,28.739056 c -0.105098,0.01974 -0.2135,0.03615 -0.325212,0.05258 l 0,0 c 0.108404,-0.01644 0.216808,-0.03285 0.325212,-0.05258 z" /><path
         style="fill:url(#SVGID_8_)"
         inkscape:connector-curvature="0"
         id="path4184"
         d="m 28.991769,28.739056 c -0.105098,0.01974 -0.2135,0.03615 -0.325212,0.05258 l 0,0 c 0.108404,-0.01644 0.216808,-0.03285 0.325212,-0.05258 z" /><path
         style="fill:#be202e"
         inkscape:connector-curvature="0"
         id="path4186"
         d="m 29.839207,26.025938 c 0.03309,-0.003 0.06899,-0.0098 0.101839,-0.01642 -0.03609,0.0066 -0.06899,0.01312 -0.101839,0.01642 l 0,0 z" /><path
         style="opacity:0.35;fill:#be202e"
         inkscape:connector-curvature="0"
         id="path4188"
         d="m 29.839207,26.025938 c 0.03309,-0.003 0.06899,-0.0098 0.101839,-0.01642 -0.03609,0.0066 -0.06899,0.01312 -0.101839,0.01642 l 0,0 z" /><path
         style="fill:url(#SVGID_9_)"
         inkscape:connector-curvature="0"
         id="path4199"
         d="m 29.839207,26.025938 c 0.03309,-0.003 0.06899,-0.0098 0.101839,-0.01642 -0.03609,0.0066 -0.06899,0.01312 -0.101839,0.01642 l 0,0 z" /><path
         style="fill:#be202e"
         inkscape:connector-curvature="0"
         id="path4201"
         d="m 29.842513,26.025938 c 0,0 0,0 0,0 l 0,0 0,0 0,0 c 0,0 0,0 0,0 z" /><path
         style="opacity:0.35;fill:#be202e"
         inkscape:connector-curvature="0"
         id="path4203"
         d="m 29.842513,26.025938 c 0,0 0,0 0,0 l 0,0 0,0 0,0 c 0,0 0,0 0,0 z" /><path
         style="fill:url(#SVGID_10_)"
         inkscape:connector-curvature="0"
         id="path4214"
         d="m 29.842513,26.025938 c 0,0 0,0 0,0 l 0,0 0,0 0,0 c 0,0 0,0 0,0 z" /></g><path
       d="m 242.60152,10.335405 c 0.65017,0.195031 1.22433,0.455057 1.70653,0.785519 l -0.56881,1.245982 c -0.49846,-0.33046 -1.02937,-0.574236 -1.59272,-0.736763 -0.56346,-0.162516 -1.09972,-0.243775 -1.60891,-0.243775 -0.7476,0 -1.34894,0.135431 -1.79859,0.406302 -0.44966,0.270862 -0.6718,0.650078 -0.6718,1.143055 0,0.422544 0.12462,0.769257 0.37385,1.045536 0.24923,0.276288 0.55799,0.48756 0.9372,0.644661 0.37375,0.151692 0.88838,0.330459 1.54391,0.530898 0.79095,0.254618 1.43021,0.492977 1.91231,0.709676 0.48219,0.222107 0.89383,0.547141 1.2406,0.980529 0.34131,0.433388 0.51464,1.002207 0.51464,1.706457 0,0.64466 -0.17333,1.202645 -0.52009,1.684788 -0.34667,0.482143 -0.83968,0.850515 -1.47893,1.11597 -0.63926,0.265444 -1.37058,0.395457 -2.19944,0.395457 -0.82886,0 -1.63598,-0.162518 -2.42148,-0.482142 -0.78014,-0.319617 -1.45183,-0.753007 -2.01529,-1.289322 l 0.59055,-1.191811 c 0.53091,0.520065 1.1376,0.92095 1.83104,1.208062 0.69342,0.287124 1.37057,0.427972 2.026,0.427972 0.83976,0 1.50611,-0.162518 1.99366,-0.48756 0.48755,-0.325034 0.72587,-0.76384 0.72587,-1.316407 0,-0.433389 -0.12461,-0.785508 -0.3792,-1.067214 -0.2546,-0.281697 -0.56881,-0.498385 -0.94257,-0.655495 -0.37384,-0.157101 -0.88848,-0.33045 -1.54401,-0.525481 -0.78004,-0.232941 -1.41929,-0.455047 -1.90684,-0.671746 -0.48756,-0.21669 -0.8993,-0.536316 -1.24061,-0.964278 -0.33584,-0.42797 -0.50382,-0.985956 -0.50382,-1.684787 0,-0.601323 0.16798,-1.126804 0.49847,-1.576444 0.33039,-0.455058 0.80167,-0.801761 1.41384,-1.050963 0.61216,-0.249192 1.31104,-0.373788 2.10735,-0.373788 0.66635,-0.0049 1.32187,0.09207 1.97729,0.287112 z"
       id="path4216"
       inkscape:connector-curvature="0"
       style="fill:#6d6e71" /><path
       d="m 259.82325,10.844635 c 0.92639,0.520063 1.66307,1.224313 2.2048,2.118175 0.54172,0.888438 0.81258,1.868977 0.81258,2.93619 0,1.072622 -0.27086,2.058578 -0.81258,2.952429 -0.54173,0.893864 -1.27841,1.60353 -2.2048,2.129011 -0.92638,0.525482 -1.94484,0.785509 -3.04456,0.785509 -1.11599,0 -2.1398,-0.260027 -3.0662,-0.785509 -0.92638,-0.525481 -1.66317,-1.235147 -2.20489,-2.129011 -0.54171,-0.893851 -0.81257,-1.879807 -0.81257,-2.952429 0,-1.072632 0.27086,-2.058587 0.81257,-2.95244 0.54172,-0.893862 1.27851,-1.598113 2.20489,-2.11276 0.9264,-0.514647 1.95021,-0.774673 3.0662,-0.774673 1.09972,0 2.11818,0.260026 3.04456,0.785508 z m -5.40651,1.094301 c -0.72587,0.411718 -1.30013,0.964285 -1.73351,1.657702 -0.43338,0.698832 -0.65007,1.462672 -0.65007,2.296945 0,0.839679 0.21669,1.614354 0.65007,2.313187 0.43338,0.704259 1.00764,1.256816 1.73351,1.66312 0.72051,0.406302 1.51146,0.612156 2.36195,0.612156 0.85048,0 1.63609,-0.205854 2.35114,-0.612156 0.71506,-0.406304 1.28386,-0.964288 1.71188,-1.66312 0.42792,-0.698833 0.63926,-1.473508 0.63926,-2.313187 0,-0.839691 -0.21134,-1.608948 -0.63926,-2.302363 -0.42802,-0.693416 -0.99682,-1.245983 -1.71734,-1.657702 -0.7205,-0.411719 -1.50055,-0.617574 -2.34568,-0.617574 -0.85049,0.005 -1.64144,0.211272 -2.36195,0.622992 z"
       id="path4218"
       inkscape:connector-curvature="0"
       style="fill:#6d6e71" /><path
       d="m 271.19964,11.370115 0,4.079245 5.42268,0 0,1.278485 -5.42268,0 0,4.973097 -1.32732,0 0,-11.609312 7.37299,0 0,1.278485 -6.04567,0 z"
       id="path4220"
       inkscape:connector-curvature="0"
       style="fill:#6d6e71" /><path
       d="m 288.01497,11.370115 0,10.330827 -1.32722,0 0,-10.330827 -3.77052,0 0,-1.278485 8.89527,0 0,1.278485 -3.79753,0 z"
       id="path4222"
       inkscape:connector-curvature="0"
       style="fill:#6d6e71" /><path
       d="m 308.96914,21.700942 -3.13118,-9.778258 -3.17453,9.778258 -1.35432,0 -3.88423,-11.609312 1.42476,0 3.1908,10.070799 3.14745,-10.054547 1.32722,-0.01627 3.17999,10.070799 3.14745,-10.070799 1.37604,0 -3.88969,11.609311 -1.35976,0 z"
       id="path4224"
       inkscape:connector-curvature="0"
       style="fill:#6d6e71" /><path
       d="m 320.84388,18.770172 -1.29467,2.93077 -1.40848,0 5.206,-11.609312 1.37603,0 5.18973,11.609312 -1.44093,0 -1.29478,-2.93077 -6.3329,0 z m 3.15292,-7.161697 -2.58401,5.883211 5.206,0 -2.62199,-5.883211 z"
       id="path4226"
       inkscape:connector-curvature="0"
       style="fill:#6d6e71" /><path
       d="m 341.44602,18.000914 c -0.33049,0.02164 -0.59053,0.03254 -0.77468,0.03254 l -3.08246,0 0,3.667525 -1.32722,0 0,-11.609312 4.40968,0 c 1.44638,0 2.56783,0.341286 3.36961,1.018449 0.80176,0.682591 1.20259,1.64145 1.20259,2.882015 0,0.948036 -0.22214,1.744379 -0.67179,2.383622 -0.44956,0.639243 -1.0888,1.099719 -1.92847,1.381423 l 2.71407,3.943803 -1.50602,0 -2.40531,-3.700028 z m 1.66308,-1.93398 c 0.56881,-0.465892 0.85593,-1.143055 0.85593,-2.042335 0,-0.872185 -0.28712,-1.533097 -0.85593,-1.982736 -0.56881,-0.44964 -1.3814,-0.671748 -2.44322,-0.671748 l -3.08246,0 0,5.390234 3.08246,0 c 1.06182,0.0049 1.87441,-0.227524 2.44322,-0.693415 z"
       id="path4228"
       inkscape:connector-curvature="0"
       style="fill:#6d6e71" /><path
       d="m 353.97084,11.370115 0,3.813791 5.85071,0 0,1.278495 -5.85071,0 0,3.976306 6.76628,0 0,1.262235 -8.09351,0 0,-11.609312 7.87137,0 0,1.278485 -6.54414,0 z"
       id="path4230"
       inkscape:connector-curvature="0"
       style="fill:#6d6e71" /><path
       d="m 379.24808,11.370115 0,4.079245 5.42267,0 0,1.278485 -5.42267,0 0,4.973097 -1.32723,0 0,-11.609312 7.37299,0 0,1.278485 -6.04576,0 z"
       id="path4232"
       inkscape:connector-curvature="0"
       style="fill:#6d6e71" /><path
       d="m 399.99099,10.844635 c 0.92639,0.520063 1.66307,1.224313 2.20481,2.118175 0.54182,0.888438 0.81268,1.868977 0.81268,2.93619 0,1.072622 -0.27086,2.058578 -0.81268,2.952429 -0.54174,0.893864 -1.27842,1.60353 -2.20481,2.129011 -0.92638,0.525482 -1.94483,0.785509 -3.04455,0.785509 -1.11599,0 -2.13982,-0.260027 -3.0662,-0.785509 -0.92639,-0.525481 -1.66307,-1.235147 -2.20489,-2.129011 -0.54172,-0.893851 -0.81258,-1.879807 -0.81258,-2.952429 0,-1.072632 0.27086,-2.058587 0.81258,-2.95244 0.54182,-0.893862 1.2785,-1.598113 2.20489,-2.11276 0.92638,-0.514647 1.95021,-0.774673 3.0662,-0.774673 1.09972,0 2.11271,0.260026 3.04455,0.785508 z m -5.4065,1.094301 c -0.72587,0.411718 -1.30014,0.964285 -1.73351,1.657702 -0.43339,0.698832 -0.65007,1.462672 -0.65007,2.296945 0,0.839679 0.21668,1.614354 0.65007,2.313187 0.43337,0.704259 1.00764,1.256816 1.73351,1.66312 0.7205,0.406302 1.51147,0.612156 2.36195,0.612156 0.85048,0 1.63608,-0.205854 2.35114,-0.612156 0.71505,-0.406304 1.28386,-0.964288 1.71188,-1.66312 0.42792,-0.698833 0.63925,-1.473508 0.63925,-2.313187 0,-0.839691 -0.21133,-1.608948 -0.63925,-2.302363 -0.42802,-0.693416 -0.99683,-1.245983 -1.71733,-1.657702 -0.72053,-0.411719 -1.50057,-0.617574 -2.34569,-0.617574 -0.85594,0.005 -1.64145,0.211272 -2.36195,0.622992 z"
       id="path4234"
       inkscape:connector-curvature="0"
       style="fill:#6d6e71" /><path
       d="m 418.25282,20.482046 c -0.86141,0.855943 -2.05319,1.283903 -3.57002,1.283903 -1.52773,0 -2.72498,-0.42796 -3.59174,-1.283903 -0.86676,-0.855932 -1.30014,-2.042326 -1.30014,-3.559181 l 0,-6.831235 1.32723,0 0,6.831235 c 0,1.11597 0.31968,1.988164 0.95347,2.616571 0.63926,0.62841 1.50601,0.94261 2.60573,0.94261 1.10517,0 1.97193,-0.308782 2.60028,-0.93719 0.62843,-0.622993 0.93719,-1.500603 0.93719,-2.627408 l 0,-6.825818 1.32732,0 0,6.831235 c 0.0103,1.516855 -0.42803,2.703249 -1.28932,3.559181 z"
       id="path4236"
       inkscape:connector-curvature="0"
       style="fill:#6d6e71" /><path
       d="m 435.60443,21.700942 -6.96125,-9.317783 0,9.317783 -1.32722,0 0,-11.609312 1.37594,0 6.96134,9.334036 0,-9.334036 1.31096,0 0,11.609312 -1.35977,0 z"
       id="path4238"
       inkscape:connector-curvature="0"
       style="fill:#6d6e71" /><path
       d="m 452.62564,10.860887 c 0.90475,0.509228 1.61982,1.208061 2.14526,2.09109 0.52555,0.883019 0.79096,1.863556 0.79096,2.952441 0,1.088872 -0.26541,2.06941 -0.79096,2.952428 -0.52544,0.88303 -1.24596,1.581861 -2.1669,2.091092 -0.91555,0.509228 -1.93938,0.758421 -3.06082,0.758421 l -4.648,0 0,-11.614729 4.69682,0 c 1.12134,0 2.12898,0.25461 3.03364,0.769256 z m -6.39779,9.57782 3.38577,0 c 0.85058,0 1.63062,-0.195019 2.32951,-0.585071 0.69878,-0.39005 1.25677,-0.931773 1.66307,-1.625187 0.40629,-0.68801 0.61217,-1.462682 0.61217,-2.313197 0,-0.850526 -0.20588,-1.625201 -0.62298,-2.313197 -0.41712,-0.687998 -0.97511,-1.229731 -1.68481,-1.630616 -0.7097,-0.400885 -1.48973,-0.601324 -2.34568,-0.601324 l -3.33705,0 0,9.068592 z"
       id="path4240"
       inkscape:connector-curvature="0"
       style="fill:#6d6e71" /><path
       d="m 463.10818,18.770172 -1.29478,2.93077 -1.40848,0 5.20609,-11.609312 1.37595,0 5.18981,11.609312 -1.44101,0 -1.29468,-2.93077 -6.3329,0 z m 3.1529,-7.161697 -2.5841,5.883211 5.2061,0 -2.622,-5.883211 z"
       id="path4242"
       inkscape:connector-curvature="0"
       style="fill:#6d6e71" /><path
       d="m 480.87699,11.370115 0,10.330827 -1.32722,0 0,-10.330827 -3.77043,0 0,-1.278485 8.89517,0 0,1.278485 -3.79752,0 z"
       id="path4244"
       inkscape:connector-curvature="0"
       style="fill:#6d6e71" /><path
       d="m 491.06694,21.700942 0,-11.609312 1.32731,0 0,11.609312 -1.32731,0 z"
       id="path4246"
       inkscape:connector-curvature="0"
       style="fill:#6d6e71" /><path
       d="m 508.58117,10.844635 c 0.92638,0.520063 1.66316,1.224313 2.20489,2.118175 0.54172,0.888438 0.81257,1.868977 0.81257,2.93619 0,1.072622 -0.27085,2.058578 -0.81257,2.952429 -0.54173,0.893864 -1.27851,1.60353 -2.20489,2.129011 -0.92639,0.525482 -1.94486,0.785509 -3.04458,0.785509 -1.11589,0 -2.1398,-0.260027 -3.06618,-0.785509 -0.9263,-0.525481 -1.66307,-1.235147 -2.20481,-2.129011 -0.54171,-0.893851 -0.81257,-1.879807 -0.81257,-2.952429 0,-1.072632 0.27086,-2.058587 0.81257,-2.95244 0.54174,-0.893862 1.27851,-1.598113 2.20481,-2.11276 0.92638,-0.514647 1.95029,-0.774673 3.06618,-0.774673 1.10518,0 2.11819,0.260026 3.04458,0.785508 z m -5.40652,1.094301 c -0.72587,0.411718 -1.30014,0.964285 -1.73352,1.657702 -0.43338,0.698832 -0.65007,1.462672 -0.65007,2.296945 0,0.839679 0.21669,1.614354 0.65007,2.313187 0.43338,0.704259 1.00765,1.256816 1.73352,1.66312 0.72051,0.406302 1.51146,0.612156 2.36194,0.612156 0.8506,0 1.63608,-0.205854 2.35114,-0.612156 0.71516,-0.406304 1.28396,-0.964288 1.71189,-1.66312 0.42802,-0.698833 0.63925,-1.473508 0.63925,-2.313187 0,-0.839691 -0.21123,-1.608948 -0.63925,-2.302363 -0.42793,-0.693416 -0.99673,-1.245983 -1.71725,-1.657702 -0.7205,-0.411719 -1.50064,-0.617574 -2.34578,-0.617574 -0.85048,0.005 -1.63598,0.211272 -2.36194,0.622992 z"
       id="path4248"
       inkscape:connector-curvature="0"
       style="fill:#6d6e71" /><path
       d="m 526.92424,21.700942 -6.96125,-9.317783 0,9.317783 -1.32732,0 0,-11.609312 1.37605,0 6.96123,9.334036 0,-9.334036 1.31105,0 0,11.609312 -1.35976,0 z"
       id="path4250"
       inkscape:connector-curvature="0"
       style="fill:#6d6e71" /><path
       d="m 223.77635,9.939948 c 0.48755,0.48755 0.73133,1.078038 0.73133,1.766046 0,0.687999 -0.24378,1.278487 -0.73133,1.771454 -0.48755,0.492979 -1.08344,0.74218 -1.77687,0.74218 -0.69878,0 -1.28931,-0.243784 -1.77142,-0.731336 -0.48219,-0.48756 -0.72596,-1.078048 -0.72596,-1.766046 0,-0.688008 0.24377,-1.278496 0.73133,-1.771464 0.48754,-0.492978 1.07808,-0.74218 1.7715,-0.74218 0.69344,0 1.28387,0.243785 1.77142,0.731346 z m -0.21123,3.331645 c 0.42792,-0.433387 0.63925,-0.953441 0.63925,-1.56018 0,-0.606751 -0.21133,-1.121388 -0.63389,-1.549359 -0.42246,-0.427971 -0.94257,-0.64466 -1.55473,-0.64466 -0.61217,0 -1.13225,0.216689 -1.56018,0.64466 -0.42256,0.433388 -0.63925,0.953453 -0.63925,1.560192 0,0.60674 0.21123,1.126794 0.62844,1.554764 0.42256,0.427972 0.9372,0.644661 1.54937,0.644661 0.61207,0 1.14297,-0.216689 1.57099,-0.650078 z m -0.35213,-2.042325 c 0,0.44963 -0.19505,0.731336 -0.59053,0.845098 l 0.72051,0.975122 -0.57962,0 -0.65007,-0.904698 -0.59589,0 0,0.904698 -0.47139,0 0,-2.708666 1.01847,0 c 0.41175,0 0.70434,0.07045 0.88302,0.211283 0.17879,0.140847 0.2655,0.368371 0.2655,0.677163 z m -0.60134,0.379207 c 0.0922,-0.0758 0.14089,-0.205855 0.14089,-0.384624 0,-0.178778 -0.0486,-0.303375 -0.14634,-0.368382 -0.0973,-0.07044 -0.26541,-0.102924 -0.51464,-0.102924 l -0.57417,0 0,0.975123 0.56335,0 c 0.26005,0 0.43339,-0.0379 0.53091,-0.119189 z"
       id="path4252"
       inkscape:connector-curvature="0"
       style="fill:#6d6e71" /><path
       d="m 241.96238,32.546424 c 1.14296,0 2.04226,0.330451 2.68698,0.99678 0.64461,0.66633 0.96964,1.581862 0.96964,2.752004 l 0,5.937382 -1.42475,0 0,-5.558167 c 0,-0.850524 -0.23832,-1.516853 -0.72051,-1.993579 -0.4821,-0.476728 -1.14844,-0.715085 -1.99902,-0.715085 -1.013,0.01081 -1.80395,0.341295 -2.38358,0.985955 -0.57963,0.644661 -0.86675,1.489758 -0.86675,2.540721 l 0,4.734738 -1.42476,0 0,-13.559554 1.42476,0 0,6.089066 c 0.62297,-1.451837 1.87439,-2.18859 3.73799,-2.210261 z"
       id="path4254"
       inkscape:connector-curvature="0"
       style="fill:#6d6e71" /><path
       d="m 257.29879,40.423206 0.40084,1.153889 c -0.69344,0.476726 -1.41931,0.720502 -2.17772,0.731336 -0.74223,0 -1.33813,-0.227522 -1.78233,-0.687997 -0.44418,-0.455058 -0.66633,-1.143055 -0.66633,-2.058588 l 0,-5.498578 -1.38686,0 0,-1.153888 1.38686,0 0,-2.54072 1.40847,0 0,2.54072 3.05003,-0.01627 0,1.170142 -3.05003,0 0,5.243968 c 0,1.072632 0.42803,1.608947 1.27851,1.608947 0.50382,0 1.01301,-0.167945 1.53856,-0.492979 z"
       id="path4256"
       inkscape:connector-curvature="0"
       style="fill:#6d6e71" /><path
       d="m 268.35549,40.423206 0.40093,1.153889 c -0.69342,0.476726 -1.41939,0.720502 -2.1778,0.731336 -0.74214,0 -1.33803,-0.227522 -1.78233,-0.687997 -0.44419,-0.455058 -0.66635,-1.143055 -0.66635,-2.058588 l 0,-5.498578 -1.38675,0 0,-1.153888 1.38675,0 0,-2.54072 1.40859,0 0,2.54072 3.04992,-0.01627 0,1.170142 -3.04992,0 0,5.243968 c 0,1.072632 0.42792,1.608947 1.27851,1.608947 0.50372,0 1.013,-0.167945 1.53845,-0.492979 z"
       id="path4258"
       inkscape:connector-curvature="0"
       style="fill:#6d6e71" /><path
       d="m 280.07318,32.546424 c 1.36511,0 2.47576,0.455048 3.33706,1.37058 0.86139,0.915521 1.28931,2.091081 1.28931,3.526676 0,1.424752 -0.42257,2.589475 -1.27305,3.494174 -0.84512,0.899269 -1.9502,1.354326 -3.31542,1.354326 -1.74432,0 -2.99039,-0.70425 -3.74881,-2.118177 l 0,5.612351 -1.42475,0 0,-13.185758 1.42475,0 0,2.080248 c 0.75306,-1.424752 1.99357,-2.13442 3.71091,-2.13442 z m -0.25459,8.440183 c 0.99673,0 1.82022,-0.335878 2.46484,-1.007624 0.64471,-0.66633 0.96974,-1.527679 0.96974,-2.578642 0,-1.034709 -0.32503,-1.890642 -0.96974,-2.567816 -0.64462,-0.677163 -1.46811,-1.013032 -2.46484,-1.013032 -1.0131,0 -1.84196,0.335869 -2.48657,1.007616 -0.64471,0.671757 -0.96975,1.527688 -0.96975,2.578649 0,1.045546 0.32504,1.906895 0.96975,2.578642 0.64461,0.666329 1.47347,1.002207 2.48657,1.002207 z"
       id="path4260"
       inkscape:connector-curvature="0"
       style="fill:#6d6e71" /><path
       d="m 291.22205,35.049224 c 0.24378,0 0.44965,0.09207 0.62298,0.276278 0.17334,0.184197 0.25459,0.406303 0.25459,0.677165 0,0.270871 -0.0863,0.492979 -0.25459,0.677173 -0.17333,0.184186 -0.3792,0.27628 -0.62298,0.27628 -0.25469,0 -0.47137,-0.09207 -0.63925,-0.27628 -0.17333,-0.184194 -0.25458,-0.406302 -0.25458,-0.677173 0,-0.270862 0.0863,-0.492968 0.25458,-0.677165 0.16788,-0.184186 0.38456,-0.276278 0.63925,-0.276278 z m 0,5.428155 c 0.24378,0 0.44965,0.09207 0.62298,0.270861 0.17334,0.184197 0.25459,0.406302 0.25459,0.677174 0,0.265443 -0.0863,0.492968 -0.25459,0.677163 -0.17333,0.184186 -0.3792,0.276278 -0.62298,0.276278 -0.25469,0 -0.47137,-0.09207 -0.63925,-0.276278 -0.17333,-0.184195 -0.25458,-0.406303 -0.25458,-0.677163 0,-0.265454 0.0863,-0.492977 0.25458,-0.677174 0.16788,-0.178769 0.38456,-0.270861 0.63925,-0.270861 z"
       id="path4262"
       inkscape:connector-curvature="0"
       style="fill:#6d6e71" /><path
       d="m 297.95032,44.459113 -1.24059,0 5.70446,-17.216246 1.26224,0 -5.72611,17.216246 z"
       id="path4264"
       inkscape:connector-curvature="0"
       style="fill:#6d6e71" /><path
       d="m 307.67446,44.459113 -1.24061,0 5.70446,-17.216246 1.26224,0 -5.72609,17.216246 z"
       id="path4266"
       inkscape:connector-curvature="0"
       style="fill:#6d6e71" /><path
       d="m 328.63408,42.23259 -1.47892,0 -2.83334,-7.822609 -2.81695,7.822609 -1.47893,0 -3.60255,-9.631994 1.50065,0 2.8495,8.153061 2.79533,-8.153061 1.50055,0 2.83323,8.153061 2.81706,-8.153061 1.47892,0 -3.56455,9.631994 z"
       id="path4268"
       inkscape:connector-curvature="0"
       style="fill:#6d6e71" /><path
       d="m 348.35855,42.23259 -1.47901,0 -2.83325,-7.822609 -2.81695,7.822609 -1.47893,0 -3.60256,-9.631994 1.50065,0 2.84951,8.153061 2.79533,-8.153061 1.50055,0 2.83324,8.153061 2.81704,-8.153061 1.47894,0 -3.56456,9.631994 z"
       id="path4270"
       inkscape:connector-curvature="0"
       style="fill:#6d6e71" /><path
       d="m 368.07756,42.23259 -1.47892,0 -2.83323,-7.822609 -2.81706,7.822609 -1.47893,0 -3.60255,-9.631994 1.50066,0 2.8495,8.153061 2.79532,-8.153061 1.50056,0 2.83333,8.153061 2.81696,-8.153061 1.47892,0 -3.56456,9.631994 z"
       id="path4272"
       inkscape:connector-curvature="0"
       style="fill:#6d6e71" /><path
       d="m 377.07026,40.477379 c 0.24379,0 0.44965,0.09207 0.62298,0.270861 0.17344,0.184197 0.2547,0.406302 0.2547,0.677174 0,0.265443 -0.0863,0.492968 -0.2547,0.677163 -0.17333,0.184186 -0.37919,0.276278 -0.62298,0.276278 -0.25459,0 -0.47128,-0.09207 -0.63925,-0.276278 -0.17333,-0.184195 -0.25459,-0.406303 -0.25459,-0.677163 0,-0.265454 0.0863,-0.492977 0.25459,-0.677174 0.17342,-0.178769 0.38466,-0.270861 0.63925,-0.270861 z"
       id="path4274"
       inkscape:connector-curvature="0"
       style="fill:#6d6e71" /><path
       d="m 390.52691,42.23259 0,-1.478933 c -0.76922,1.034711 -1.94483,1.554774 -3.52664,1.554774 -0.9751,0 -1.76606,-0.276278 -2.36742,-0.834262 -0.60124,-0.552569 -0.90465,-1.256817 -0.90465,-2.11276 0,-0.839681 0.31422,-1.50601 0.94801,-2.004405 0.6338,-0.492978 1.51684,-0.747596 2.64909,-0.758433 l 3.16372,0 0,-0.568817 c 0,-0.720502 -0.22214,-1.273069 -0.65553,-1.66311 -0.43883,-0.39005 -1.07798,-0.585071 -1.91775,-0.585071 -0.9751,0 -1.99356,0.362954 -3.05538,1.094291 l -0.60125,-1.040118 c 0.68261,-0.449641 1.31096,-0.780102 1.89067,-0.985956 0.57962,-0.205855 1.25677,-0.308783 2.03682,-0.308783 1.18098,0 2.09109,0.292532 2.73034,0.877602 0.63926,0.58507 0.96429,1.403083 0.98056,2.448627 l 0.0159,6.359937 -1.38684,0 z m -3.25578,-1.17014 c 0.81804,0 1.51147,-0.189603 2.09109,-0.574237 0.57962,-0.384634 0.95884,-0.910115 1.14308,-1.581861 l 0,-1.153889 -2.99585,0 c -1.63063,0 -2.44857,0.520064 -2.44857,1.554773 0,0.536316 0.20041,0.964288 0.60126,1.278486 0.40093,0.319627 0.93719,0.476728 1.60899,0.476728 z"
       id="path4276"
       inkscape:connector-curvature="0"
       style="fill:#6d6e71" /><path
       d="m 404.24898,32.546424 c 1.36522,0 2.47576,0.455048 3.33705,1.37058 0.86141,0.915521 1.28934,2.091081 1.28934,3.526676 0,1.424752 -0.42258,2.589475 -1.27305,3.494174 -0.84514,0.899269 -1.95021,1.354326 -3.31544,1.354326 -1.74433,0 -2.99029,-0.70425 -3.74869,-2.118177 l 0,5.612351 -1.42486,0 0,-13.185758 1.42486,0 0,2.080248 c 0.7584,-1.424752 1.99355,-2.13442 3.71079,-2.13442 z m -0.25459,8.440183 c 0.99673,0 1.82023,-0.335878 2.46485,-1.007624 0.6447,-0.66633 0.96974,-1.527679 0.96974,-2.578642 0,-1.034709 -0.32504,-1.890642 -0.96974,-2.567816 -0.64462,-0.677163 -1.46812,-1.013032 -2.46485,-1.013032 -1.013,0 -1.84186,0.335869 -2.48657,1.007616 -0.64461,0.671757 -0.96963,1.527688 -0.96963,2.578649 0,1.045546 0.32502,1.906895 0.96963,2.578642 0.64471,0.666329 1.47357,1.002207 2.48657,1.002207 z"
       id="path4278"
       inkscape:connector-curvature="0"
       style="fill:#6d6e71" /><path
       d="m 421.28647,42.23259 0,-1.478933 c -0.76923,1.034711 -1.94485,1.554774 -3.52665,1.554774 -0.97511,0 -1.76607,-0.276278 -2.36741,-0.834262 -0.60126,-0.552569 -0.90467,-1.256817 -0.90467,-2.11276 0,-0.839681 0.31422,-1.50601 0.94802,-2.004405 0.6338,-0.492978 1.51682,-0.747596 2.64909,-0.758433 l 3.16372,0 0,-0.568817 c 0,-0.720502 -0.22215,-1.273069 -0.65553,-1.66311 -0.43884,-0.39005 -1.07799,-0.585071 -1.91775,-0.585071 -0.97511,0 -1.99357,0.362954 -3.05538,1.094291 l -0.60126,-1.040118 c 0.68251,-0.449641 1.31096,-0.780102 1.89068,-0.985956 0.57961,-0.205855 1.25677,-0.308783 2.03682,-0.308783 1.18098,0 2.09108,0.292532 2.73034,0.877602 0.63925,0.58507 0.96429,1.403083 0.98056,2.448627 l 0.0159,6.359937 -1.38685,0 z m -3.25579,-1.17014 c 0.81803,0 1.51146,-0.189603 2.09108,-0.574237 0.57964,-0.384634 0.95883,-0.910115 1.14308,-1.581861 l 0,-1.153889 -2.99585,0 c -1.63598,0 -2.44857,0.520064 -2.44857,1.554773 0,0.536316 0.20042,0.964288 0.60126,1.278486 0.40629,0.319627 0.94265,0.476728 1.609,0.476728 z"
       id="path4280"
       inkscape:connector-curvature="0"
       style="fill:#6d6e71" /><path
       d="m 433.58378,32.562677 c 1.54937,-0.01081 2.78451,0.460465 3.71091,1.424751 l -0.78551,1.007624 c -0.78014,-0.74218 -1.73898,-1.11597 -2.87122,-1.11597 -0.99674,0 -1.82025,0.330452 -2.45949,0.985946 -0.63926,0.655506 -0.95883,1.511437 -0.95883,2.556983 0,1.045545 0.31957,1.906894 0.95883,2.567805 0.63924,0.666331 1.4573,0.996791 2.45949,0.996791 1.28931,0 2.28614,-0.41172 2.97957,-1.240564 l 0.8234,0.877601 c -0.91557,1.110552 -2.19945,1.663119 -3.85715,1.663119 -1.40312,0 -2.54609,-0.44964 -3.43458,-1.354326 -0.88839,-0.899282 -1.33269,-2.069423 -1.33269,-3.510426 0,-1.424762 0.44965,-2.594902 1.3435,-3.49959 0.89385,-0.904696 2.03692,-1.359744 3.42377,-1.359744 z"
       id="path4282"
       inkscape:connector-curvature="0"
       style="fill:#6d6e71" /><path
       d="m 449.23442,32.546424 c 1.14307,0 2.04236,0.330451 2.68698,0.99678 0.64471,0.66633 0.96975,1.581862 0.96975,2.752004 l 0,5.937382 -1.42476,0 0,-5.558167 c 0,-0.850524 -0.23841,-1.516853 -0.72051,-1.993579 -0.48219,-0.476728 -1.14853,-0.715085 -1.99901,-0.715085 -1.01301,0.01081 -1.80396,0.341295 -2.38359,0.985955 -0.57972,0.644661 -0.86675,1.489758 -0.86675,2.540721 l 0,4.734738 -1.42486,0 0,-13.559554 1.42486,0 0,6.089066 c 0.62298,-1.451837 1.86894,-2.18859 3.73789,-2.210261 z"
       id="path4284"
       inkscape:connector-curvature="0"
       style="fill:#6d6e71" /><path
       d="m 463.8016,32.562677 c 1.52229,-0.01081 2.67071,0.471299 3.44539,1.441002 0.7747,0.975121 1.12681,2.296946 1.05102,3.965483 l -7.86055,0 c 0.11916,0.93719 0.49837,1.684787 1.13216,2.237355 0.63389,0.552557 1.4194,0.834262 2.35661,0.834262 1.21887,0 2.21024,-0.400885 2.97947,-1.208061 l 0.7855,0.839681 c -0.9642,1.072632 -2.25361,1.608947 -3.87333,1.608947 -1.41394,0 -2.56782,-0.449641 -3.4563,-1.354329 -0.88839,-0.899279 -1.33259,-2.069421 -1.33259,-3.510422 0,-1.441015 0.4442,-2.605738 1.33259,-3.510426 0.88848,-0.893864 2.03691,-1.343492 3.44003,-1.343492 z m -3.36414,4.241759 6.58204,0 c -0.0487,-0.926364 -0.36294,-1.66312 -0.94266,-2.204852 -0.57961,-0.541733 -1.33804,-0.812594 -2.27524,-0.812594 -0.91557,0 -1.67398,0.276278 -2.28614,0.823429 -0.61207,0.547151 -0.96965,1.278487 -1.078,2.194017 z"
       id="path4286"
       inkscape:connector-curvature="0"
       style="fill:#6d6e71" /><path
       d="m 474.76623,40.477379 c 0.24378,0 0.44966,0.09207 0.62299,0.270861 0.16796,0.184197 0.25468,0.406302 0.25468,0.677174 0,0.265443 -0.0863,0.492968 -0.25468,0.677163 -0.17333,0.184186 -0.37921,0.276278 -0.62299,0.276278 -0.25458,0 -0.47127,-0.09207 -0.63925,-0.276278 -0.17333,-0.184195 -0.25458,-0.406303 -0.25458,-0.677163 0,-0.265454 0.0863,-0.492977 0.25458,-0.677174 0.16798,-0.178769 0.38467,-0.270861 0.63925,-0.270861 z"
       id="path4288"
       inkscape:connector-curvature="0"
       style="fill:#6d6e71" /><path
       d="m 482.64304,33.917004 c 0.91558,-0.899279 2.08564,-1.354327 3.51038,-1.354327 1.42476,0 2.59492,0.449628 3.51049,1.354327 0.91547,0.899271 1.37059,2.063994 1.37059,3.494174 0,1.435583 -0.46047,2.611143 -1.37059,3.515839 -0.91557,0.910106 -2.08573,1.359746 -3.51049,1.359746 -1.42474,0 -2.5948,-0.455058 -3.51038,-1.359746 -0.91557,-0.910112 -1.37058,-2.080256 -1.37058,-3.515839 0,-1.43018 0.45501,-2.594903 1.37058,-3.494174 z m 5.99696,0.93719 c -0.64461,-0.666329 -1.47347,-0.99678 -2.48658,-0.99678 -1.01299,0 -1.84186,0.330451 -2.48646,0.99678 -0.64471,0.66634 -0.96974,1.522271 -0.96974,2.567817 0,1.061798 0.32503,1.923147 0.96974,2.584059 0.6446,0.666329 1.47347,0.996791 2.48646,0.996791 1.01311,0 1.84197,-0.330462 2.48658,-0.996791 0.64471,-0.66633 0.96975,-1.527679 0.96975,-2.584059 -0.0103,-1.045546 -0.32504,-1.901477 -0.96975,-2.567817 z"
       id="path4290"
       inkscape:connector-curvature="0"
       style="fill:#6d6e71" /><path
       d="m 498.88957,32.600596 0,2.139835 c 0.66089,-1.435583 1.80942,-2.16692 3.45631,-2.194007 l 0,1.446421 c -0.99682,-0.01081 -1.80405,0.265444 -2.41076,0.828847 -0.61217,0.568817 -0.95348,1.332668 -1.04009,2.291527 l 0,5.119371 -1.43021,0 0,-9.631994 1.42475,0 z"
       id="path4292"
       inkscape:connector-curvature="0"
       style="fill:#6d6e71" /><path
       d="m 516.58794,32.600596 0,8.624369 c 0,1.403093 -0.44419,2.519063 -1.32722,3.34249 -0.88303,0.828847 -2.05854,1.240567 -3.51584,1.240567 -1.42475,-0.01081 -2.74116,-0.476727 -3.94922,-1.392248 l 0.65552,-1.0943 c 0.96429,0.801761 2.04228,1.213479 3.23417,1.224314 1.05091,0 1.89057,-0.297957 2.52447,-0.893863 0.63379,-0.595905 0.94801,-1.392247 0.94801,-2.394455 l 0,-1.462673 c -0.70424,1.338076 -1.89067,2.009823 -3.54293,2.009823 -1.29477,0 -2.34567,-0.43338 -3.16372,-1.300156 -0.81803,-0.866766 -1.22432,-1.988153 -1.22432,-3.364158 0,-1.338077 0.40083,-2.437793 1.20806,-3.299143 0.80176,-0.86136 1.85266,-1.294739 3.14199,-1.305572 1.6577,0 2.84959,0.671745 3.58092,2.009821 l 0,-1.955649 1.43011,0 z m -7.08585,7.042518 c 0.61762,0.639245 1.40312,0.958862 2.3674,0.958862 0.96429,0 1.74979,-0.319617 2.36742,-0.958862 0.61206,-0.639243 0.92092,-1.451847 0.92092,-2.437801 0,-0.996782 -0.30886,-1.82022 -0.92092,-2.459462 -0.61763,-0.639244 -1.40313,-0.958861 -2.36742,-0.958861 -0.96428,0 -1.74978,0.319617 -2.3674,0.958861 -0.61217,0.639242 -0.92629,1.457263 -0.94256,2.459462 0.0159,0.985954 0.33039,1.798558 0.94256,2.437801 z"
       id="path4294"
       inkscape:connector-curvature="0"
       style="fill:#6d6e71" /><path
       d="m 523.05628,44.459113 -1.24061,0 5.70446,-17.216246 1.26224,0 -5.72609,17.216246 z"
       id="path4296"
       inkscape:connector-curvature="0"
       style="fill:#6d6e71" /></g></svg>