<svg id="Community_Over_Code" data-name="Community Over Code" xmlns="http://www.w3.org/2000/svg" viewBox="0 0 307.97 148.79">
  <title>community_over_code_logo</title>
  <g id="CODE" style="isolation: isolate">
    <path d="M57,161.48a40,40,0,0,1-14.54-2.59,34,34,0,0,1-19.32-18.65,38,38,0,0,1,0-28.38,33.94,33.94,0,0,1,7.73-11.26,34.75,34.75,0,0,1,11.64-7.39,39.92,39.92,0,0,1,14.59-2.59A39.51,39.51,0,0,1,72.95,93.7a31,31,0,0,1,11.93,9.05l-10,9.4a23.56,23.56,0,0,0-7.73-6,21.47,21.47,0,0,0-9.27-2,23.47,23.47,0,0,0-8.69,1.57,19.68,19.68,0,0,0-6.86,4.5,20.6,20.6,0,0,0-4.49,6.95,25.68,25.68,0,0,0,0,17.81,20.58,20.58,0,0,0,4.49,6.95,19.66,19.66,0,0,0,6.86,4.5A23.44,23.44,0,0,0,57.83,148a21.45,21.45,0,0,0,9.27-2,23,23,0,0,0,7.73-6.12l10,9.4a31.44,31.44,0,0,1-11.93,9.1A39.23,39.23,0,0,1,57,161.48Z" transform="translate(-10.01 -12.69)" style="fill: #282662"/>
    <path d="M126.81,161.48A40.65,40.65,0,0,1,112,158.84a35,35,0,0,1-11.79-7.44,33.93,33.93,0,0,1-7.73-11.26,37.45,37.45,0,0,1,0-28.19,33.61,33.61,0,0,1,7.78-11.26A35.68,35.68,0,0,1,112,93.26a42.26,42.26,0,0,1,29.42,0,35.29,35.29,0,0,1,11.69,7.44,34.37,34.37,0,0,1,10.58,25.35,35.4,35.4,0,0,1-2.8,14.14,33.9,33.9,0,0,1-7.78,11.26,35.64,35.64,0,0,1-11.69,7.39A39.62,39.62,0,0,1,126.81,161.48Zm-.1-13.51a21.8,21.8,0,0,0,8.36-1.57,20,20,0,0,0,6.71-4.5,20.58,20.58,0,0,0,4.49-6.95,25.68,25.68,0,0,0,0-17.81,21,21,0,0,0-4.44-6.95,19.42,19.42,0,0,0-6.71-4.5,22.2,22.2,0,0,0-8.41-1.57,21.82,21.82,0,0,0-8.36,1.57,20,20,0,0,0-6.71,4.5,20.6,20.6,0,0,0-4.49,6.95,25.55,25.55,0,0,0,0,17.76,20.85,20.85,0,0,0,4.44,7,19.37,19.37,0,0,0,6.71,4.5A22.15,22.15,0,0,0,126.71,148Z" transform="translate(-10.01 -12.69)" style="fill: #282662"/>
    <path d="M175.5,160.31V91.79h30.72a42.41,42.41,0,0,1,19.42,4.26,32.24,32.24,0,0,1,13.14,11.89,33.68,33.68,0,0,1,4.73,18.11,33.74,33.74,0,0,1-4.73,18.06,32.11,32.11,0,0,1-13.14,11.94,42.41,42.41,0,0,1-19.42,4.26Zm15.65-13h14.3a25.07,25.07,0,0,0,11.74-2.59,18.67,18.67,0,0,0,7.73-7.39,24.48,24.48,0,0,0,0-22.56,18.77,18.77,0,0,0-7.73-7.34,25.08,25.08,0,0,0-11.74-2.59h-14.3Z" transform="translate(-10.01 -12.69)" style="fill: #282662"/>
    <path d="M270.85,147.58h36.81v12.72H255.3V91.79H306.4v12.72H270.85Zm-1.16-28.19h32.56v12.33H269.69Z" transform="translate(-10.01 -12.69)" style="fill: #282662"/>
  </g>
  <rect id="rectangle" x="9.2" y="43.3" width="289.58" height="27.38" style="fill: #282662"/>
  <g id="THE_ASF_CONFERENCE" data-name="THE ASF CONFERENCE" style="isolation: isolate">
    <path d="M52.26,75.76V62.68h-5v-.92h11.1v.92h-5V75.76Z" transform="translate(-10.01 -12.69)" style="fill: #fff"/>
    <path d="M61.86,75.76h-1v-14h1Zm9.48-6.66h-9.6v-.9h9.6Zm-.12-7.34h1v14h-1Z" transform="translate(-10.01 -12.69)" style="fill: #fff"/>
    <path d="M78.14,74.84h8.64v.92H77.12v-14h9.36v.92H78.14ZM78,68.2H85.6v.9H78Z" transform="translate(-10.01 -12.69)" style="fill: #fff"/>
    <path d="M93.3,75.76l6.44-14h1l6.44,14h-1.1L100,62.4h.44L94.4,75.76Zm2.36-3.94L96,71h8.38l.34.86Z" transform="translate(-10.01 -12.69)" style="fill: #fff"/>
    <path d="M113.42,75.86a8.21,8.21,0,0,1-3-.53A5.46,5.46,0,0,1,108.32,74l.46-.76a5.72,5.72,0,0,0,2,1.25,7,7,0,0,0,2.65.51,6,6,0,0,0,2.29-.37,2.91,2.91,0,0,0,1.32-1,2.37,2.37,0,0,0,.43-1.38,2.09,2.09,0,0,0-.48-1.44,3.36,3.36,0,0,0-1.26-.86,11.61,11.61,0,0,0-1.7-.54l-1.86-.47a8.56,8.56,0,0,1-1.72-.65,3.31,3.31,0,0,1-1.25-1.09,3.12,3.12,0,0,1-.47-1.79,3.43,3.43,0,0,1,.52-1.84,3.69,3.69,0,0,1,1.62-1.36,6.61,6.61,0,0,1,2.82-.52A7.91,7.91,0,0,1,116,62a6.41,6.41,0,0,1,1.93.92l-.38.82a6.55,6.55,0,0,0-1.89-.89,7.08,7.08,0,0,0-2-.29,5.62,5.62,0,0,0-2.22.38,2.88,2.88,0,0,0-1.3,1,2.49,2.49,0,0,0-.42,1.41,2.11,2.11,0,0,0,.47,1.44,3.26,3.26,0,0,0,1.25.86,11.3,11.3,0,0,0,1.72.54q.94.22,1.86.47a8.74,8.74,0,0,1,1.7.65A3.43,3.43,0,0,1,118,70.4a3,3,0,0,1,.48,1.76,3.35,3.35,0,0,1-.54,1.83,3.73,3.73,0,0,1-1.65,1.36A6.85,6.85,0,0,1,113.42,75.86Z" transform="translate(-10.01 -12.69)" style="fill: #fff"/>
    <path d="M122.94,75.76h-1v-14h9.36v.92h-8.34Zm-.12-7.1h7.58v.92h-7.58Z" transform="translate(-10.01 -12.69)" style="fill: #fff"/>
    <path d="M145.6,75.86a7.73,7.73,0,0,1-2.89-.53,6.91,6.91,0,0,1-2.31-1.49,6.77,6.77,0,0,1-1.52-2.25,7.69,7.69,0,0,1,0-5.66,6.71,6.71,0,0,1,1.53-2.25,7.06,7.06,0,0,1,2.31-1.49,7.65,7.65,0,0,1,2.88-.53,7.88,7.88,0,0,1,2.77.48,5.73,5.73,0,0,1,2.21,1.46l-.64.66A5.48,5.48,0,0,0,148,63a6.81,6.81,0,0,0-2.31-.39,6.65,6.65,0,0,0-2.49.46,6,6,0,0,0-3.32,3.26,6.57,6.57,0,0,0,0,4.88,6,6,0,0,0,3.32,3.26,6.64,6.64,0,0,0,2.49.46,6.81,6.81,0,0,0,2.31-.39,5.36,5.36,0,0,0,2-1.29l.64.66a5.82,5.82,0,0,1-2.21,1.47A7.72,7.72,0,0,1,145.6,75.86Z" transform="translate(-10.01 -12.69)" style="fill: #fff"/>
    <path d="M159.64,75.86a7.73,7.73,0,0,1-2.89-.53,6.94,6.94,0,0,1-2.32-1.5,6.81,6.81,0,0,1-1.53-2.26,7.58,7.58,0,0,1,0-5.62,6.81,6.81,0,0,1,1.53-2.26,6.94,6.94,0,0,1,2.32-1.5,8.14,8.14,0,0,1,5.78,0,6.87,6.87,0,0,1,3.84,3.74,7.55,7.55,0,0,1,0,5.66,6.87,6.87,0,0,1-3.84,3.74A7.73,7.73,0,0,1,159.64,75.86Zm0-.94a6.57,6.57,0,0,0,2.48-.46,5.87,5.87,0,0,0,2-1.3,6.05,6.05,0,0,0,1.31-2,6.59,6.59,0,0,0,0-4.89,6.09,6.09,0,0,0-1.31-1.95,5.88,5.88,0,0,0-2-1.3,6.92,6.92,0,0,0-5,0,6,6,0,0,0-3.31,3.25,6.6,6.6,0,0,0,0,4.89,6,6,0,0,0,3.31,3.26A6.57,6.57,0,0,0,159.64,74.92Z" transform="translate(-10.01 -12.69)" style="fill: #fff"/>
    <path d="M170.46,75.76v-14h.86l10,12.74h-.46V61.76h1v14H181L171,63h.46V75.76Z" transform="translate(-10.01 -12.69)" style="fill: #fff"/>
    <path d="M187.76,75.76h-1v-14h9.36v.92h-8.34Zm-.12-7.1h7.58v.92h-7.58Z" transform="translate(-10.01 -12.69)" style="fill: #fff"/>
    <path d="M200.38,74.84H209v.92h-9.66v-14h9.36v.92h-8.34Zm-.12-6.64h7.58v.9h-7.58Z" transform="translate(-10.01 -12.69)" style="fill: #fff"/>
    <path d="M212.74,75.76v-14h5a7.41,7.41,0,0,1,3,.56,4.34,4.34,0,0,1,1.94,1.61,4.59,4.59,0,0,1,.68,2.55,4.52,4.52,0,0,1-.68,2.51,4.4,4.4,0,0,1-1.94,1.62,7.29,7.29,0,0,1-3,.57H213.3l.46-.48v5.06Zm1-5-.46-.48h4.46a5.15,5.15,0,0,0,3.43-1,3.95,3.95,0,0,0,0-5.61,5.18,5.18,0,0,0-3.43-1H213.3l.46-.5Zm8.7,5-3.64-5.08H220l3.64,5.08Z" transform="translate(-10.01 -12.69)" style="fill: #fff"/>
    <path d="M228.16,74.84h8.64v.92h-9.66v-14h9.36v.92h-8.34ZM228,68.2h7.58v.9H228Z" transform="translate(-10.01 -12.69)" style="fill: #fff"/>
    <path d="M240.52,75.76v-14h.86l10,12.74h-.46V61.76h1v14h-.84L241.08,63h.46V75.76Z" transform="translate(-10.01 -12.69)" style="fill: #fff"/>
    <path d="M262.72,75.86a7.73,7.73,0,0,1-2.89-.53,6.91,6.91,0,0,1-2.31-1.49A6.77,6.77,0,0,1,256,71.59a7.69,7.69,0,0,1,0-5.66,6.71,6.71,0,0,1,1.53-2.25,7.06,7.06,0,0,1,2.31-1.49,7.65,7.65,0,0,1,2.88-.53,7.88,7.88,0,0,1,2.77.48,5.73,5.73,0,0,1,2.21,1.46l-.64.66a5.48,5.48,0,0,0-2-1.27,6.81,6.81,0,0,0-2.31-.39,6.65,6.65,0,0,0-2.49.46,6,6,0,0,0-3.32,3.26,6.57,6.57,0,0,0,0,4.88,6,6,0,0,0,3.32,3.26,6.64,6.64,0,0,0,2.49.46,6.81,6.81,0,0,0,2.31-.39,5.36,5.36,0,0,0,2-1.29l.64.66a5.82,5.82,0,0,1-2.21,1.47A7.72,7.72,0,0,1,262.72,75.86Z" transform="translate(-10.01 -12.69)" style="fill: #fff"/>
    <path d="M272.14,74.84h8.64v.92h-9.66v-14h9.36v.92h-8.34ZM272,68.2h7.58v.9H272Z" transform="translate(-10.01 -12.69)" style="fill: #fff"/>
  </g>
  <g id="COMMUNITY">
    <path id="path9804" d="M27.56,46.65a19.68,19.68,0,0,1-7-1.22,16.6,16.6,0,0,1-9.26-9,17.44,17.44,0,0,1-1.3-6.8,17.44,17.44,0,0,1,1.3-6.8A16.22,16.22,0,0,1,20.61,14a18.8,18.8,0,0,1,7-1.27,18.51,18.51,0,0,1,7.59,1.5,14.61,14.61,0,0,1,5.74,4.32L36.12,23a11,11,0,0,0-3.7-2.86,10.07,10.07,0,0,0-4.44-1,11.23,11.23,0,0,0-4.17.75,9.43,9.43,0,0,0-3.29,2.16,10.16,10.16,0,0,0-2.18,3.33,11.79,11.79,0,0,0-.74,4.27,11.79,11.79,0,0,0,.74,4.27,10.16,10.16,0,0,0,2.18,3.33,9.43,9.43,0,0,0,3.29,2.16,11.23,11.23,0,0,0,4.17.75,10.49,10.49,0,0,0,4.44-.94,11.33,11.33,0,0,0,3.7-3l4.81,4.5a15,15,0,0,1-5.74,4.36,18.63,18.63,0,0,1-7.64,1.5Z" transform="translate(-10.01 -12.69)" style="fill: #f59524"/>
    <path id="path9806" d="M61,46.65a19.66,19.66,0,0,1-7.13-1.27,17.09,17.09,0,0,1-5.65-3.56,16.74,16.74,0,0,1-3.7-5.39,17.32,17.32,0,0,1-1.3-6.75,17.32,17.32,0,0,1,1.3-6.75,16.4,16.4,0,0,1,3.75-5.39A17.09,17.09,0,0,1,53.94,14a19.16,19.16,0,0,1,7-1.27A18.93,18.93,0,0,1,68,14a16.58,16.58,0,0,1,5.6,3.56,16.4,16.4,0,0,1,3.75,5.39,16.58,16.58,0,0,1,1.34,6.75,17.13,17.13,0,0,1-1.34,6.8,16.4,16.4,0,0,1-3.75,5.39A17,17,0,0,1,68,45.39,18.8,18.8,0,0,1,61,46.65Zm0-6.47a10.27,10.27,0,0,0,4-.75,9.53,9.53,0,0,0,5.37-5.49,12,12,0,0,0,0-8.54,9.58,9.58,0,0,0-2.13-3.33A9.06,9.06,0,0,0,65,19.92a11.18,11.18,0,0,0-8.05,0,9.65,9.65,0,0,0-3.19,2.16,10.16,10.16,0,0,0-2.18,3.33,11.79,11.79,0,0,0-.74,4.27,12,12,0,0,0,.74,4.27,10.56,10.56,0,0,0,2.13,3.33A9.54,9.54,0,0,0,57,39.43,10.62,10.62,0,0,0,61,40.18Z" transform="translate(-10.01 -12.69)" style="fill: #f69923"/>
    <path id="path9808" d="M84.36,46.09V13.25h6.2l13.79,23.17h-3.29l13.56-23.17h6.16l.09,32.84h-7l0-21.91h1.3L104.26,42.62h-3.38L89.82,24.18h1.57V46.09Z" transform="translate(-10.01 -12.69)" style="fill: #e56b29"/>
    <path id="path9810" d="M128.56,46.09V13.25h6.2l13.79,23.17h-3.29l13.56-23.17H165l.09,32.84h-7l0-21.91h1.3L148.47,42.62h-3.38L134,24.18h1.57V46.09Z" transform="translate(-10.01 -12.69)" style="fill: #d43831"/>
    <path id="path9812" d="M187.17,46.65q-6.9,0-10.79-3.89t-3.89-11.12V13.25H180V31.36q0,4.69,1.9,6.75a7.9,7.9,0,0,0,10.65,0q1.9-2.06,1.9-6.75V13.25h7.41V31.64q0,7.22-3.89,11.12T187.17,46.65Z" transform="translate(-10.01 -12.69)" style="fill: #c12040"/>
    <path id="path9814" d="M209.25,46.09V13.25h6.2L234.57,36.9h-3V13.25H239V46.09h-6.16L213.65,22.45h3V46.09Z" transform="translate(-10.01 -12.69)" style="fill: #b82049"/>
    <path id="path9816" d="M246.65,46.09V13.25h7.5V46.09Z" transform="translate(-10.01 -12.69)" style="fill: #a92059"/>
    <path id="path9818" d="M268.55,46.09V19.45H258.18V13.25h28.24v6.19H276V46.09Z" transform="translate(-10.01 -12.69)" style="fill: #882675"/>
    <path id="path9820" d="M297.9,46.09V32.67l1.71,4.6-14.26-24h8l10.92,18.43h-4.58l11-18.43H318l-14.26,24,1.67-4.6V46.09Z" transform="translate(-10.01 -12.69)" style="fill: #7a297f"/>
  </g>
</svg>
