<?xml version="1.0" encoding="UTF-8"?>
<svg xmlns="http://www.w3.org/2000/svg" version="1.1" viewBox="0 0 650 1000">
  <defs>
    <style>
      .cls-1 {
        fill: #7c297d;
      }

      .cls-2 {
        fill: #f79a23;
      }

      .cls-3 {
        fill: #dd552c;
      }

      .cls-4 {
        fill: #d22128;
      }
    </style>
  </defs>
  <!-- Generator: Adobe Illustrator 28.7.8, SVG Export Plug-In . SVG Version: 1.2.0 Build 200)  -->
  <g>
    <g id="Layer_1">
      <path class="cls-3" d="M276.7092896,398.1515808c25.5279541-63.1242371,54.0110779-126.1246643,84.572937-181.9636078-45.6212158-33.8852081-89.4276428-106.9534683-107.4259033-139.3268738-6.4642639,7.3439713-10.6608124,15.8022385-12.5635986,22.683548-16.9556427,61.2214661,43.4024048,135.1498718-5.2131042,108.1394501-40.5058594-22.5075989-131.715744-71.7975616-166.5067291-22.8073578,38.9647369,50.0653992,140.8777771,176.0271912,207.1363983,213.2748413Z"/>
      <path class="cls-2" d="M361.2822266,216.187973c29.6137085-54.1055603,61.1725769-101.4927368,93.8913574-135.6320953,0,0-32.6340637,47.2372894-79.2457886,141.6662598,28.2290039,7.7740479,108.624939,23.7261658,220.6090698-5.2000732,2.7531738-20.3506775-10.9279785-42.7344666-79.1057129-50.2283173-44.5101929-4.8872833,53.4246216-106.28228-17.5225525-154.2363739-2.2904968-1.5509005-4.5419312-2.919342-6.7477112-4.1444225-2.378479-.8536468-4.890564-1.6356134-7.572052-2.3328667-82.8591309-21.6213741-94.3442688,118.878458-127.4084167,88.675005-53.4311218-48.8077431-87.1566772-37.4040642-104.3240967-17.8939972,17.9982605,32.3734131,61.8046875,105.4416733,107.4259033,139.3268661v.0000153Z"/>
      <path class="cls-4" d="M210.0661926,580.0239258c18.7052917-56.0344238,41.2063751-118.9892273,66.6430969-181.8723755-66.2586365-37.2476807-168.1716766-163.2094421-207.1364136-213.2748413-6.9562454,9.7876129-11.7099495,23.4394531-13.2934303,42.1088867-8.4973679,100.2807007,94.9567909,174.5219116,74.3324318,188.082489-27.2808533,17.9396057-81.5786514-43.092865-102.9784698-4.3138428,31.0180054,39.8477173,94.2008972,111.8472595,182.432785,169.2696838Z"/>
      <path class="cls-3" d="M496.7155762,363.7515564c-52.3819885-18.6824951,54.7376709-68.7869873,89.5221558-121.9411621,4.4506836-6.7965851,9.0512695-15.5806885,10.2991333-24.7883301-111.9841309,28.926239-192.3800659,12.9741211-220.6090393,5.2000732-24.130188,48.8924561-51.9942627,110.5049133-81.0540771,184.7917175,30.2653503,12.9415588,153.8421326,60.7457581,328.3900452,60.9933777,29.3465576-76.4372253-76.8347168-86.5310974-126.5482483-104.2556763h.0000305Z"/>
      <path class="cls-4" d="M230.3060913,590.1113281c30.7801514,9.5921021,132.7681274,38.2446899,241.0835266,33.9308472,14.5510864-39.3980713-39.8509827-43.2427368-44.2821045-74.8406982-3.4308777-24.4494629,143.1683044,20.5461426,190.3371887-68.3569031,2.3850098-4.4963074,4.2454224-8.7384644,5.8191528-12.8372803-174.5479736-.2476196-298.1247253-48.0518494-328.3900757-60.9933777-21.236908,54.2880249-43.0830994,115.2162476-64.567627,183.0974731l-.000061-.000061Z"/>
      <path class="cls-1" d="M230.3060913,590.1113281c-13.8310394,43.6923828-27.4763489,90.3692627-40.7209015,139.6983032-4.6983185,17.4899902-9.3412476,35.3057861-13.9190063,53.5125732,102.8058014,33.9373169,197.4726105.078186,200.6819305-41.8873291.026062-.3323364-.0358276-.5799561-.0162964-.899231,2.4468994-44.4483032-64.1733704-19.8098145-62.596405-46.5335083,1.5834961-26.9191895,116.3077393-.1563721,151.7861938-57.8720093,2.7205811-4.4246216,4.493042-8.3540039,5.8680115-12.0878906-108.3153992,4.3138428-210.3033752-24.3386841-241.0835266-33.9308472v-.000061Z"/>
      <path class="cls-1" d="M27.6334133,410.7542725c-1.4987698,2.7173462-2.8509197,5.8582458-4.0043201,9.6116638-19.9238548,64.7533264,120.9604454,151.7406311,101.7924919,170.7032776-17.2781982,17.0859375-39.795578-21.9602051-67.5619049-5.8321533-3.0431519,1.7724609-6.1319199,4.0075684-9.3021431,7.2592773-31.4024715,32.1713867-.4919891,124.8540039,88.6033211,174.326416-20.790535,69.8100586-41.4898376,147.8046875-61.7525482,229.3703003,7.3504868-2.5739746,16.1476059-5.15448,18.3371124-12.0878906,3.2875214-13.5150146,23.6056137-95.75177,56.5948181-207.3188477,0,0,6.0211487-22.8529663,17.0436096-60.5046387,10.1916351-34.8170776,24.6743011-82.3019409,42.6823425-136.2576294-88.2318878-57.4224243-151.4147797-129.4219666-182.432785-169.2696838l.0000057-.0000916Z"/>
    </g>
  </g>
</svg>