<?xml version="1.0" encoding="UTF-8"?>
<svg id="Layer_1" xmlns="http://www.w3.org/2000/svg" viewBox="0 0 1000 1000">
  <defs>
    <style>
      .cls-1, .cls-2 {
        fill: #7c297d;
      }

      .cls-3 {
        fill: #e2e2e2;
      }

      .cls-4 {
        fill: #f79a23;
      }

      .cls-5 {
        fill: #dd552c;
      }

      .cls-6 {
        fill: #fff;
      }

      .cls-7 {
        fill: #d22128;
      }

      .cls-2 {
        stroke: #673293;
        stroke-miterlimit: 10;
        stroke-width: 2.2307173px;
      }
    </style>
  </defs>
  <g>
    <path class="cls-3" d="M500,993.3823775c-132.0195641,0-255.9758445-51.2605068-349.05257-144.3298075C57.8781293,755.9758445,6.6176225,632.0195641,6.6176225,500S57.8781293,244.0241555,150.94743,150.94743C244.0241555,57.8781293,367.9804359,6.6176225,500,6.6176225s255.9758445,51.2605068,349.05257,144.3298075c93.0693007,93.0767255,144.3298075,217.0330059,144.3298075,349.05257s-51.2605068,255.9758445-144.3298075,349.05257c-93.0767255,93.0693007-217.0330059,144.3298075-349.05257,144.3298075Z"/>
    <g>
      <path class="cls-2" d="M59.9633004,510.2278074l.3572633-19.2486498c.2788397-14.3079597,7.7203729-22.4117372,20.4685733-22.1764662,12.7569142.2439847,19.8847528,8.6266018,19.6146269,22.9432753l-.2614122,14.0465476,20.6341344.3834045-.0871374,5.210816-60.7260483-1.1589273ZM95.6199211,491.9115277c.2265572-11.6241281-4.7751291-17.6191806-14.9179215-17.8108829-9.9859451-.1917023-15.301326,5.611648-15.5104557,17.2357761l-.2701259,13.7938491,30.4458047.5751068.2526984-13.7938491Z"/>
      <path class="cls-2" d="M92.8315245,446.9137786c-18.1942874-3.8166178-28.1366638-19.0395201-24.3026186-37.3035174,3.807904-18.2030011,19.0308064-28.1453775,37.21638-24.3374735,18.1942874,3.8166178,28.1366638,19.0395201,24.3287598,37.2250938-3.8340452,18.2814248-19.0482338,28.2150875-37.2425212,24.4158972ZM104.6386411,390.5445998c-15.301326-3.206656-28.0146715,4.9581176-31.1777588,20.0938825-3.1892285,15.2141886,5.1759611,27.796828,20.4772871,31.003484,15.301326,3.206656,28.0146715-4.9581176,31.2039-20.1723062,3.1630873-15.135765-5.2021023-27.7184043-20.5034283-30.9250603Z"/>
      <path class="cls-2" d="M82.5405986,354.556857l2.3004271-4.9668313,54.8181332,6.5091632-19.1615125-18.9523827-20.3988634-20.3988634,2.1261524-4.5659993,55.6546521,4.8884077-40.4056086-37.7217769,2.3439958-5.045255,46.7230695,43.7255432-2.1697211,4.644423-25.2349887-2.1435798-30.7246443-2.7012591,39.8392155,39.5778033-2.204576,4.7315604-63.5057311-7.5809531Z"/>
      <path class="cls-2" d="M137.9948347,249.6957198l21.4619396-28.6072057,3.7469078,2.8232515-18.3337072,24.4333247,18.1855737,13.6370018,16.9743639-22.6208669,3.8253315,2.8668202-16.9830777,22.6295806,19.0220926,14.264391,18.908814-25.2001337,3.807904,2.8668202-22.0283326,29.365301-48.5878097-36.4582847Z"/>
      <path class="cls-2" d="M179.7162179,197.936109l16.2859785-15.7805817c8.7921628-8.5307507,19.6669093-8.7921628,27.7706868-.4269732,6.9622776,7.1714073,7.4328195,16.268551,1.7776028,24.1719125l27.997244,5.1672473-4.4962894,4.3568696-27.5005608-5.1585336-11.6676968,11.3017197,15.8938603,16.3992571-3.7381941,3.6336292-42.3226312-43.664547ZM218.7276282,206.3448673c6.8577127-6.648583,7.2933997-14.6826505,1.2460647-20.9216878-6.1083312-6.3174609-14.09883-6.1867548-21.0175389.5228244l-12.1730936,11.7896891,19.7714742,20.3988634,12.1730936-11.7896891Z"/>
      <path class="cls-2" d="M235.7629883,147.9889561l29.3914422-20.4162909,2.6751179,3.842759-25.1042826,17.4536196,12.9834714,18.6996843,23.2569699-16.1639862,2.7274004,3.9124689-23.2569699,16.1639862,13.5847194,19.544917,25.8972328-18.0025851,2.7274004,3.9298964-30.1756788,20.9739702-34.7068231-49.9384392Z"/>
      <path class="cls-2" d="M292.2890143,111.5742401l17.2270624-8.0776362c17.8631653-8.3651896,33.9225866-2.7448278,41.7823794,14.0029789,7.8423653,16.7478067,1.8908814,32.6852357-15.9722839,41.0504253l-17.2183486,8.08635-25.8188092-55.0621179ZM333.226161,154.0798598c14.865639-6.9709913,19.8237566-20.1374512,13.1838874-34.3059911-6.6311555-14.1423987-19.9283215-18.7606804-34.9420941-11.7112655l-12.3560822,5.7859228,21.6187869,46.0869665,12.495502-5.8556327Z"/>
      <path class="cls-2" d="M402.8663645,70.7416583l23.1436913-4.1477398c10.8398915-1.9518776,19.0220926,2.8493927,20.712558,12.2428035,1.1850685,6.6572967-1.5161906,12.2515173-7.3021134,15.3187535,7.5199569.6709579,12.6436355,5.1323924,13.9681239,12.5564982,1.7776028,9.9162352-4.3655833,17.4536196-15.8938603,19.5187758l-23.9105003,4.2871597-10.7178992-59.7762508ZM430.4366352,93.7285022c8.1909148-1.4639082,12.3212272-6.5178769,11.0664488-13.5237232-1.2634922-6.9971326-6.8925677-10.3954908-15.0050589-8.9402964l-17.6801768,3.1630873,4.0257475,22.4640196,17.5930394-3.1630873ZM436.3271229,121.6821775c8.7137392-1.5684731,13.0444675-6.9274226,11.7199792-14.264391-1.3332021-7.4328195-7.3369684-10.9444564-16.303406-9.3324147l-18.10715,3.241511,4.243591,23.6578019,18.4469858-3.3025071Z"/>
      <path class="cls-2" d="M491.0929736,98.7737572l-23.6142332-37.9570479,5.9776251-.1045649,12.1208112,19.4054971,8.0253538,13.061895,19.0569476-33.1209226,5.9863388-.0958511-22.350741,38.6280058.3746908,22.4727333-5.2021023.0784237-.3746908-22.3681685Z"/>
    </g>
    <circle class="cls-6" cx="499.9990112" cy="499.9991461" r="341.5751811"/>
    <g>
      <path class="cls-1" d="M632.3862544,873.9218532l-18.0025851,6.6747242-4.5050032-12.1382387,49.0322104-18.2030011,4.5050032,12.1382387-18.0025851,6.6921517,16.6519556,44.867043-13.0270401,4.8361252-16.6519556-44.867043Z"/>
      <path class="cls-1" d="M721.5539474,857.1304778l-20.4772871,11.9029677,12.295086,21.148245-11.9203952,6.9361364-30.5242283-52.5002785,11.9203952-6.9361364,11.7374067,20.1723062,20.4772871-11.9029677-11.7374067-20.1723062,11.9203952-6.9361364,30.5416558,52.5002785-11.9378227,6.9361364-12.295086-21.148245Z"/>
      <path class="cls-1" d="M730.6598048,807.3314584l30.6200795-25.4964008,7.4415333,8.9402964-20.0938825,16.7129517,8.0079263,9.6112543,18.342421-15.2751848,7.4415333,8.9402964-18.342421,15.2751848,8.5046094,10.2125023,20.8171229-17.3316272,7.4938157,9.0100063-31.3520336,26.1063626-38.8807042-46.705642Z"/>
      <path class="cls-1" d="M802.016615,736.7588848l8.1647736-10.8137503,63.0874716,17.3926234-8.9054414,11.7809754-10.8486053-3.0759499-14.5606582,19.2660773,5.8730602,9.654823-8.853159,11.7286929-33.9574416-55.9334918ZM842.7533456,748.2697343l-22.9258478-6.5440181,12.6174943,20.1984474,10.3083534-13.6544293Z"/>
      <path class="cls-1" d="M865.39164,718.712731l6.2303235-11.9116815c5.1846748,2.605408,10.2037886.3224083,13.297166-5.5942206,2.640263-5.0801099,2.2481447-9.3934108-1.3680571-11.2842922-3.7643353-1.9693051-7.7987966.3398358-13.4714408,7.0581287-9.2017086,11.258151-17.5581844,14.5258032-26.4026297,9.9162352-9.7768154-5.1062512-11.7984028-16.0507076-5.3240946-28.4329309,6.6572967-12.7743416,17.8370241-17.3141997,28.6856294-11.6415555l-6.1518999,11.7635479c-4.8361252-2.5356981-9.5241169-.6709579-12.460647,4.9494039-2.6925454,5.1498199-2.1784348,9.4282658,1.3593433,11.2755785,3.3112209,1.7253204,6.8664265-.034855,13.0880362-7.2672585,10.1340787-11.7374067,18.142005-14.7087917,26.6814694-10.2473573,10.1602199,5.2979534,12.1382387,16.3208335,5.4722282,29.0864614-7.0668425,13.5324369-18.4731271,18.1594324-29.6354269,12.3299409Z"/>
      <path class="cls-1" d="M856.7911794,642.04054l12.3560822-35.9703153,11.8245441,4.0693162-7.8685065,22.9084203,14.3602422,4.9319764,7.1714073-20.8519779,11.5021357,3.9560376-7.1714073,20.8519779,19.7889017,6.7880028-4.4788619,13.0706088-57.4845374-19.7540467Z"/>
    </g>
  </g>
  <g>
    <path class="cls-5" d="M475.082566,498.9906396c17.0680366-42.2049957,36.1119136-84.3272109,56.545632-121.6612264-30.502444-22.6557219-59.7914998-71.5093006-71.8251736-93.1542287-4.3220146,4.910192-7.1278386,10.5654088-8.4000446,15.166263-11.3365747,40.9327898,29.0189299,90.3614753-3.4854957,72.3022508-27.0823014-15.0486276-88.065405-48.0039891-111.3267317-15.2490436,26.0519017,33.4738291,94.1911636,117.6921182,138.4918136,142.5959848Z"/>
    <path class="cls-4" d="M531.6281979,377.3294132c19.7997938-36.1750882,40.9001133-67.8582438,62.7759555-90.6838836,0,0-21.8192029,31.5829476-52.9838911,94.7183449,18.8739591,5.1977454,72.6268376,15.8633622,147.4996415-3.4767819,1.8407774-13.6065037-7.3064703-28.5723508-52.8902184-33.5827508-29.7595977-3.2676522,35.7197953-71.060543-11.7156223-103.1227463-1.5314397-1.036935-3.0367381-1.9518776-4.5115385-2.7709691-1.5902574-.5707499-3.2698306-1.0935743-5.0626825-1.5597593-55.3997753-14.4560933-63.0787579,79.4823719-85.1855142,59.2882814-35.7241522-32.6329532-58.2731307-25.0084314-69.7513037-11.9639639,12.0336738,21.6449281,41.3227296,70.4985068,71.8251736,93.1542287Z"/>
    <path class="cls-7" d="M430.5248607,620.5908699c12.5063942-37.4647216,27.5506648-79.5564387,44.5577053-121.6002302-44.30065-24.9038666-112.4399119-109.1221557-138.4918136-142.5959848-4.6509583,6.5440181-7.8292947,15.6716599-8.888014,28.1540913-5.6813579,67.0478661,63.4883036,116.6856813,49.6988114,125.7523269-18.2400345,11.994462-54.5436504-28.8119786-68.8516101-2.8842477,20.7386992,26.6422575,62.9829068,74.7813096,121.974921,113.1740444Z"/>
    <path class="cls-5" d="M622.179197,475.9907251c-35.0226962-12.4911451,36.5977045-45.9911154,59.8546744-81.5301006,2.9757419-4.544215,6.0516919-10.4172752,6.8860324-16.5735319-74.8728039,19.3401441-128.6256824,8.6745274-147.4996415,3.4767819-16.1334881,32.6895925-34.7634624,73.8837945-54.1929224,123.5521078,20.2354808,8.652743,102.8591557,40.6147383,219.5622645,40.7802994,19.6211622-51.1060803-51.3718493-57.8548713-84.6104074-69.7055565Z"/>
    <path class="cls-7" d="M444.0572976,627.335304c20.5796735,6.413312,88.7690394,25.5704676,161.1889257,22.6862199,9.7288898-26.3416335-26.644436-28.9121866-29.6071073-50.0386472-2.2938918-16.3469747,95.7226033,13.7372098,127.2598038-45.703562,1.5946143-3.00624,2.8385005-5.8425621,3.8906845-8.5830331-116.7031088-.165561-199.3267837-32.1275563-219.5622645-40.7802994-14.199038,36.2970805-28.8054433,77.0338112-43.1700423,122.4193217Z"/>
    <path class="cls-1" d="M444.0572976,627.335304c-9.2474557,29.2128106-18.3707406,60.4210675-27.2260781,93.4025702-3.141303,11.693838-6.2455726,23.6055194-9.3062734,35.7786131,68.7361531,22.6905768,132.030576.0522824,134.1763343-28.0059577.0174275-.2222003-.0239628-.3877614-.0108922-.601248,1.6360045-29.7182075-42.9064517-13.2448835-41.8520893-31.1124057,1.0587193-17.9982283,77.7635869-.1045649,101.4845633-38.6933588,1.8189931-2.9583145,3.0040616-5.5855068,3.9233611-8.0819931-72.4198863,2.8842477-140.6092522-16.2729079-161.1889257-22.6862199Z"/>
    <path class="cls-1" d="M308.5499397,507.4168254c-1.00208,1.8168146-1.9061304,3.9168258-2.6772964,6.4263826-13.3211288,43.2942131,80.8743917,101.4540652,68.0586598,114.1325557-11.5522397,11.4237121-26.6074026-14.6826505-45.1720239-3.8993983-2.0346581,1.1850685-4.0998143,2.6794748-6.2194313,4.8535527-20.9957545,21.5098652-.3289437,83.4776213,59.2403558,116.5549752-13.9005924,46.6751439-27.7401887,98.822516-41.2878747,153.3574527,4.9145489-1.7209635,10.7963228-3.4462838,12.260231-8.0819931,2.1980407-9.0361475,15.7827601-64.0198417,37.8394124-138.613806,0,0,4.0257475-15.2795416,11.3953924-40.4535341,6.814144-23.2787542,16.4972867-55.0272629,28.5374958-91.1021431-58.9920142-38.3927348-101.2362218-86.5317869-121.974921-113.1740444Z"/>
  </g>
</svg>