<?xml version="1.0" encoding="UTF-8"?>
<svg id="Layer_1" xmlns="http://www.w3.org/2000/svg" viewBox="0 0 1000 293.9285746">
  <defs>
    <style>
      .cls-1 {
        fill: none;
      }

      .cls-2 {
        fill: #fff;
      }
    </style>
  </defs>
  <path class="cls-1" d="M510.8659084,248.7262342c0-5.0380859-3.2976074-8.0488281-8.817627-8.0488281h-9.7583008v16.043457h9.7583008c5.5200195,0,8.817627-2.9873047,8.817627-7.9946289Z"/>
  <polygon class="cls-1" points="514.8786037 165.5441053 550.0717189 165.5441053 532.3871486 119.8082655 514.8786037 165.5441053"/>
  <path class="cls-1" d="M433.3222072,129.6354139c0-12.8647461-8.3964844-20.3662109-23.2236328-20.3662109h-18.223877v40.9121094h18.223877c14.8271484,0,23.2236328-7.3251953,23.2236328-20.5458984Z"/>
  <path class="cls-1" d="M271.3534572,240.1842421c-9.3261719,0-15.5922852,6.3310547-15.5922852,15.7524414,0,9.4257812,6.2661133,15.7568359,15.5922852,15.7568359,9.291748,0,15.534668-6.3310547,15.534668-15.7568359,0-9.4213867-6.2429199-15.7524414-15.534668-15.7524414Z"/>
  <polygon class="cls-1" points="257.6471584 165.5441053 292.8402736 165.5441053 275.1557033 119.8082655 257.6471584 165.5441053"/>
  <polygon class="cls-1" points="820.1332424 261.5641249 834.9911525 261.5641249 827.5394924 243.4855116 820.1332424 261.5641249"/>
  <path class="cls-1" d="M929.5497463,240.1842421c-9.3261719,0-15.5922852,6.3310547-15.5922852,15.7524414,0,9.4257812,6.2661133,15.7568359,15.5922852,15.7568359,9.2919922,0,15.534668-6.3310547,15.534668-15.7568359,0-9.4213867-6.2426758-15.7524414-15.534668-15.7524414Z"/>
  <path class="cls-1" d="M781.3939846,240.7887342h-7.6655273v30.300293h7.7729492c9.7543945,0,15.8139648-5.8071289,15.8139648-15.1523438,0-9.4868164-5.9521484-15.1479492-15.9213867-15.1479492Z"/>
  <path class="cls-1" d="M642.2206447,240.1842421c-9.3261719,0-15.5922852,6.3310547-15.5922852,15.7524414,0,9.4257812,6.2661133,15.7568359,15.5922852,15.7568359,9.2915039,0,15.534668-6.3310547,15.534668-15.7568359,0-9.4213867-6.2431641-15.7524414-15.534668-15.7524414Z"/>
  <polygon class="cls-1" points="450.563174 261.5641249 465.42084 261.5641249 457.9689357 243.4855116 450.563174 261.5641249"/>
  <path class="cls-2" d="M338.755801,209.4933241l-49.6682129-125.0581055h-27.8674316l-49.668457,125.0581055h30.1936035l8.576416-21.6171875h49.6643066l8.3967285,21.6171875h30.3730469ZM257.6471584,165.5441053l17.5085449-45.7358398,17.6845703,45.7358398h-35.1931152Z"/>
  <path class="cls-2" d="M392.054385,174.6559217h20.3662109c30.1933594,0,49.6643066-17.6884766,49.6643066-45.2001953,0-27.3359375-19.4709473-45.0205078-49.6643066-45.0205078h-48.7731934v125.0581055h28.4069824v-34.8374023ZM391.8746975,109.269203h18.223877c14.8271484,0,23.2236328,7.5014648,23.2236328,20.3662109,0,13.2207031-8.3964844,20.5458984-23.2236328,20.5458984h-18.223877v-40.9121094Z"/>
  <path class="cls-2" d="M546.3192775,84.4352186h-27.8676758l-49.668457,125.0581055h30.1936035l8.576416-21.6171875h49.6645508l8.3964844,21.6171875h30.3730469l-49.6679688-125.0581055ZM514.8786037,165.5441053l17.5085449-45.7358398,17.6845703,45.7358398h-35.1931152Z"/>
  <path class="cls-2" d="M708.1312893,161.6153944c-5.1796875,14.4711914-18.3999023,23.4033203-34.8374023,23.4033203-21.2612305,0-36.2680664-15.5424805-36.2680664-38.0541992,0-22.6884766,15.1865234-38.0546875,36.4477539-38.0546875,15.8979492,0,29.1186523,8.5761719,33.7626953,22.512207h29.3017578c-7.1455078-30.1938477-32.159668-49.4887695-63.9594727-49.4887695-37.875,0-64.4956055,26.796875-64.4956055,65.03125,0,38.2304688,26.6206055,65.0307617,64.675293,65.0307617,32.8710938,0,58.4204102-20.0102539,64.6713867-50.3798828h-29.2983398Z"/>
  <polygon class="cls-2" points="795.7470119 159.1134413 844.5199611 159.1134413 844.5199611 209.4933241 872.9232814 209.4933241 872.9232814 84.4352186 844.5199611 84.4352186 844.5199611 132.4928358 795.7470119 132.4928358 795.7470119 84.4352186 767.3397854 84.4352186 767.3397854 209.4933241 795.7470119 209.4933241 795.7470119 159.1134413"/>
  <polygon class="cls-2" points="939.7597072 158.0387342 988.8886135 158.0387342 988.8886135 134.0997694 939.7597072 134.0997694 939.7597072 108.3741835 993.5360744 108.3741835 993.5360744 84.4352186 911.5321682 84.4352186 911.5321682 209.4933241 995.498965 209.4933241 995.498965 185.3746717 939.7597072 185.3746717 939.7597072 158.0387342"/>
  <polygon class="cls-2" points="221.3561428 62.4396132 226.6198146 62.4396132 226.6198146 27.097328 239.8861721 27.097328 239.8861721 21.9484022 208.0897854 21.9484022 208.0897854 27.097328 221.3561428 27.097328 221.3561428 62.4396132"/>
  <polygon class="cls-2" points="255.8378322 44.3839491 276.5597561 44.3839491 276.5597561 62.4396132 281.8768947 62.4396132 281.8768947 21.9484022 276.5597561 21.9484022 276.5597561 39.2311171 255.8378322 39.2311171 255.8378322 21.9484022 250.5780666 21.9484022 250.5780666 62.4396132 255.8378322 62.4396132 255.8378322 44.3839491"/>
  <polygon class="cls-2" points="322.0621975 57.4552382 302.0785549 57.4552382 302.0785549 44.3263319 320.0270412 44.3263319 320.0270412 39.3419569 302.0785549 39.3419569 302.0785549 26.8790663 321.4577053 26.8790663 321.4577053 21.9484022 296.8187893 21.9484022 296.8187893 62.4396132 322.0621975 62.4396132 322.0621975 57.4552382"/>
  <path class="cls-2" d="M226.0192287,253.3854139c-8.5036621-1.9204102-10.2443848-4.2841797-10.2443848-7.2451172,0-3.8100586,3.4008789-6.1782227,8.875-6.1782227,5.9597168,0,9.4064941,2.7236328,9.7009277,7.6660156l.057373.921875h5.1948242l-.0458984-1.0249023c-.3557129-7.8232422-5.925293-12.4936523-14.9072266-12.4936523-8.5878906,0-14.1386719,4.3608398-14.1386719,11.1088867,0,6.2924805,4.230957,9.8881836,14.142334,12.019043,9.0048828,2.0161133,10.2443848,4.7280273,10.2443848,7.355957,0,3.9482422-3.5690918,6.3999023-9.3146973,6.3999023-6.262207,0-10.1755371-3.0297852-10.4699707-8.105957l-.0537109-.921875h-5.2597656l.0537109,1.0292969c.4130859,7.9755859,6.4379883,12.9296875,15.7297363,12.9296875,9.0239258,0,14.6318359-4.3837891,14.6318359-11.4418945,0-6.2197266-4.2460938-9.815918-14.1958008-12.019043Z"/>
  <path class="cls-2" d="M271.3534572,235.03141c-12.3444824,0-20.9628906,8.5952148-20.9628906,20.9052734s8.6184082,20.909668,20.9628906,20.909668c12.3098145,0,20.9055176-8.5996094,20.9055176-20.909668s-8.5957031-20.9052734-20.9055176-20.9052734ZM271.3534572,271.6935194c-9.3261719,0-15.5922852-6.3310547-15.5922852-15.7568359,0-9.4213867,6.2661133-15.7524414,15.5922852-15.7524414,9.291748,0,15.534668,6.3310547,15.534668,15.7524414,0,9.4257812-6.2429199,15.7568359-15.534668,15.7568359Z"/>
  <polygon class="cls-2" points="305.0048244 276.1842421 310.2648342 276.1842421 310.2648342 259.066078 326.7252834 259.066078 326.7252834 254.0777967 310.2648342 254.0777967 310.2648342 240.7311171 328.1559475 240.7311171 328.1559475 235.6930311 305.0048244 235.6930311 305.0048244 276.1842421"/>
  <polygon class="cls-2" points="337.6696193 240.8419569 350.9359768 240.8419569 350.9359768 276.1842421 356.1996486 276.1842421 356.1996486 240.8419569 369.4657619 240.8419569 369.4657619 235.6930311 337.6696193 235.6930311 337.6696193 240.8419569"/>
  <polygon class="cls-2" points="420.5685451 266.9693983 409.2494533 235.6930311 404.6820705 235.6930311 393.3551662 266.9039686 383.1185939 235.6930311 377.5946682 235.6930311 390.8380764 276.1842421 395.5431545 276.1842421 406.9657619 244.6100233 418.4454982 276.1842421 423.085635 276.1842421 436.3939846 235.6930311 430.8051174 235.6930311 420.5685451 266.9693983"/>
  <path class="cls-2" d="M460.268008,235.6930311h-4.5559082l-16.7741699,40.4912109h5.6384277l4.0739746-9.7431641h18.6257324l4.0739746,9.7431641h5.6386719l-16.4682617-39.8867188-.2524414-.6044922ZM450.563174,261.5641249l7.4057617-18.0786133,7.4519043,18.0786133h-14.857666Z"/>
  <path class="cls-2" d="M516.1830471,248.7262342c0-7.918457-5.4204102-13.0332031-13.8056641-13.0332031h-15.347168v40.4912109h5.2597656v-14.4785156h8.8098145l10.2404785,14.4785156h6.3652344l-10.7109375-15.0527344c5.7075195-1.6181641,9.1884766-6.2504883,9.1884766-12.4052734ZM492.2899807,256.7208632v-16.043457h9.7583008c5.5200195,0,8.817627,3.0107422,8.817627,8.0488281,0,5.0073242-3.2976074,7.9946289-8.817627,7.9946289h-9.7583008Z"/>
  <polygon class="cls-2" points="534.6405666 258.0714491 552.5888088 258.0714491 552.5888088 253.0870741 534.6405666 253.0870741 534.6405666 240.6241835 554.0194729 240.6241835 554.0194729 235.6930311 529.3803127 235.6930311 529.3803127 276.1842421 554.623965 276.1842421 554.623965 271.1998671 534.6405666 271.1998671 534.6405666 258.0714491"/>
  <polygon class="cls-2" points="588.627383 276.1842421 593.8871486 276.1842421 593.8871486 259.066078 610.3475979 259.066078 610.3475979 254.0777967 593.8871486 254.0777967 593.8871486 240.7311171 611.7782619 240.7311171 611.7782619 235.6930311 588.627383 235.6930311 588.627383 276.1842421"/>
  <path class="cls-2" d="M642.2206447,235.03141c-12.3447266,0-20.9628906,8.5952148-20.9628906,20.9052734s8.6181641,20.909668,20.9628906,20.909668c12.3095703,0,20.9052734-8.5996094,20.9052734-20.909668s-8.5957031-20.9052734-20.9052734-20.9052734ZM642.2206447,271.6935194c-9.3261719,0-15.5922852-6.3310547-15.5922852-15.7568359,0-9.4213867,6.2661133-15.7524414,15.5922852-15.7524414,9.2915039,0,15.534668,6.3310547,15.534668,15.7524414,0,9.4257812-6.2431641,15.7568359-15.534668,15.7568359Z"/>
  <path class="cls-2" d="M701.2147854,260.0109022c0,7.5322266-3.6606445,11.6826172-10.3051758,11.6826172-6.6103516,0-10.2519531-4.1503906-10.2519531-11.6826172v-24.3178711h-5.2636719v24.5395508c0,10.2480469,5.9443359,16.6137695,15.515625,16.6137695,9.6015625,0,15.5649414-6.3657227,15.5649414-16.6137695v-24.5395508h-5.2597656v24.3178711Z"/>
  <polygon class="cls-2" points="748.0141018 266.4488905 725.8231838 235.6930311 721.3173244 235.6930311 721.3173244 276.1842421 726.57709 276.1842421 726.57709 245.37516 748.4730861 275.7789686 748.768008 276.1842421 753.2206447 276.1842421 753.2206447 235.6930311 748.0141018 235.6930311 748.0141018 266.4488905"/>
  <path class="cls-2" d="M781.5014064,235.6930311h-13.0332031v40.4912109h13.0332031c12.8681641,0,21.1845703-7.9487305,21.1845703-20.2475586,0-12.2983398-8.3164062-20.2436523-21.1845703-20.2436523ZM781.5014064,271.0890272h-7.7729492v-30.300293h7.6655273c9.9692383,0,15.9213867,5.6611328,15.9213867,15.1479492,0,9.3452148-6.0595703,15.1523438-15.8139648,15.1523438Z"/>
  <path class="cls-2" d="M829.8383205,235.6930311h-4.5561523l-16.7739258,40.4912109h5.6386719l4.0737305-9.7431641h18.6259766l4.0737305,9.7431641h5.6386719l-16.4682617-39.8867188-.2524414-.6044922ZM820.1332424,261.5641249l7.40625-18.0786133,7.4516602,18.0786133h-14.8579102Z"/>
  <polygon class="cls-2" points="847.8329494 240.8419569 861.0990627 240.8419569 861.0990627 276.1842421 866.3627346 276.1842421 866.3627346 240.8419569 879.6288479 240.8419569 879.6288479 235.6930311 847.8329494 235.6930311 847.8329494 240.8419569"/>
  <rect class="cls-2" x="890.596133" y="235.6930311" width="5.2602539" height="40.4912109"/>
  <path class="cls-2" d="M929.5497463,235.03141c-12.3442383,0-20.9628906,8.5952148-20.9628906,20.9052734s8.6186523,20.909668,20.9628906,20.909668c12.3100586,0,20.9052734-8.5996094,20.9052734-20.909668s-8.5952148-20.9052734-20.9052734-20.9052734ZM929.5497463,271.6935194c-9.3261719,0-15.5922852-6.3310547-15.5922852-15.7568359,0-9.4213867,6.2661133-15.7524414,15.5922852-15.7524414,9.2919922,0,15.534668,6.3310547,15.534668,15.7524414,0,9.4257812-6.2426758,15.7568359-15.534668,15.7568359Z"/>
  <polygon class="cls-2" points="989.8983791 266.4488905 967.7074611 235.6930311 963.2011135 235.6930311 963.2011135 276.1842421 968.4613674 276.1842421 968.4613674 245.37516 990.3573635 275.7789686 990.6517971 276.1842421 995.1044338 276.1842421 995.1044338 235.6930311 989.8983791 235.6930311 989.8983791 266.4488905"/>
  <path class="cls-2" d="M143.9286525,106.9728163c-15.375-5.4833984,16.0664062-20.1899414,26.2763672-35.7915039,1.3061523-1.9951172,2.6564941-4.5732422,3.0229492-7.2758789.8081055-5.9731445-3.2075195-12.543457-23.2189941-14.7426758-13.0644531-1.4345703,15.6809082-31.1958008-5.1433105-45.2714844-.6721191-.4550781-1.3330078-.8564453-1.9804688-1.2163086-.6982422-.2504883-1.4355469-.4799805-2.2224121-.6845703-24.3205566-6.3461914-27.6916504,34.8925781-37.3967285,26.0273438-15.6828613-14.3256836-25.5820312-10.9785156-30.6208496-5.2519531-1.8972168,2.1557617-3.1291504,4.6381836-3.6877441,6.6577148-4.9765625,17.9697266,12.739502,39.6689453-1.5300293,31.7412109-11.8891602-6.6064453-38.6608887-21.0742188-48.8725586-6.6943359-2.041748,2.8725586-3.4370117,6.8798828-3.9018555,12.359375-2.4941406,29.434082,27.8713379,51.2250977,21.8178711,55.2055664-8.0075684,5.265625-23.9448242-12.6484375-30.2260742-1.2661133-.4396973.7973633-.8366699,1.7192383-1.175293,2.8212891-5.8479004,19.0058594,35.5041504,44.5380859,29.8779297,50.1040039-5.0715332,5.0151367-11.6806641-6.4458008-19.8305664-1.7114258-.8933105.5200195-1.7998047,1.1757812-2.7304688,2.1303711-9.217041,9.4428711-.1442871,36.6469727,26.0065918,51.1679688-6.1022949,20.4902344-12.1779785,43.3833008-18.1254883,67.3242188,2.1577148-.7553711,4.7397461-1.5131836,5.3823242-3.5483398.9650879-3.9667969,6.9287109-28.1044922,16.6115723-60.8515625,0,0,1.767334-6.7075195,5.0026855-17.7592773,2.9914551-10.2192383,7.2421875-24.1567383,12.527832-39.9936523,5.4904785-16.4472656,12.0949707-34.9257812,19.5610352-53.3828125,7.4929199-18.527832,15.8530273-37.0195312,24.8237305-53.4091797,8.6918945-15.8813477,17.9550781-29.7900391,27.5585938-39.8105469,0,0-9.5786133,13.8647461-23.2600098,41.581543-7.0825195,14.3505859-15.2612305,32.4350586-23.7907715,54.2392578-6.2333984,15.9345703-12.6455078,33.8178711-18.9516602,53.7426758-4.0595703,12.8242188-8.0649414,26.5249023-11.9523926,41.003418-1.3789062,5.1337891-2.7416992,10.3632812-4.0854492,15.7070312,30.175293,9.9614258,57.9616699.0229492,58.9035645-12.2944336.0078125-.0976562-.010498-.1704102-.0046387-.2641602.7180176-13.0463867-18.8361816-5.8144531-18.373291-13.6582031.4648438-7.9013672,34.1384277-.0458984,44.552002-16.9868164.798584-1.2983398,1.3188477-2.4516602,1.7224121-3.5478516,4.2709961-11.5639648-11.6970215-12.6923828-12.9975586-21.9667969-1.0070801-7.1767578,42.0222168,6.0302734,55.8671875-20.0639648.6999512-1.3198242,1.2460938-2.5649414,1.7080078-3.7680664,8.6137695-22.4355469-22.5522461-25.3984375-37.144043-30.6010742Z"/>
</svg>