<?xml version="1.0" encoding="UTF-8"?>
<svg width="126px" height="126px" viewBox="0 0 126 126" version="1.1" xmlns="http://www.w3.org/2000/svg" xmlns:xlink="http://www.w3.org/1999/xlink">
    <title>Group</title>
    <defs>
        <polygon id="path-1" points="-1.41553436e-15 0 59.4 0 59.4 59.34 -1.41553436e-15 59.34"></polygon>
        <polygon id="path-3" points="0 0 26.4 0 26.4 125.54 0 125.54"></polygon>
    </defs>
    <g id="Page-1" stroke="none" stroke-width="1" fill="none" fill-rule="evenodd">
        <g id="Group" transform="translate(0.000000, 0.400000)">
            <g id="Group-9" transform="translate(0.100000, 66.200000)">
                <mask id="mask-2" fill="white">
                    <use xlink:href="#path-1"></use>
                </mask>
                <g id="Clip-7"></g>
                <path d="M26.4,13.2 C26.4,20.5 20.5,26.4 13.2,26.4 C5.9,26.4 -1.41553436e-15,20.5 -1.41553436e-15,13.2 C-1.41553436e-15,5.9 5.9,0 13.2,0 L26.4,0 L26.4,13.2" id="Fill-6" fill="#FFFFFE" mask="url(#mask-2)"></path>
                <path d="M33,13.2 C33,5.9 38.9,0 46.2,0 C53.5,0 59.4,5.9 59.4,13.2 L59.4,46.2 C59.4,53.5 53.5,59.4 46.2,59.4 C38.9,59.4 33,53.5 33,46.2 L33,13.2" id="Fill-8" fill="#FFFFFE" mask="url(#mask-2)"></path>
            </g>
            <path d="M46.3,26.4 C39,26.4 33.1,20.5 33.1,13.2 C33.1,5.9 39,0 46.3,0 C53.6,0 59.5,5.9 59.5,13.2 L59.5,26.4 L46.3,26.4" id="Fill-10" fill="#FFFFFE"></path>
            <path d="M46.3,33.1 C53.6,33.1 59.5,39 59.5,46.3 C59.5,53.6 53.6,59.5 46.3,59.5 L13.2,59.5 C5.9,59.5 0,53.6 0,46.3 C0,39 5.9,33.1 13.2,33.1 L46.3,33.1" id="Fill-11" fill="#FFFFFE"></path>
            <path d="M99.2,46.3 C99.2,39 105.1,33.1 112.4,33.1 C119.7,33.1 125.6,39 125.6,46.3 C125.6,53.6 119.7,59.5 112.4,59.5 L99.2,59.5 L99.2,46.3" id="Fill-12" fill="#FFFFFE"></path>
            <g id="Group-16" transform="translate(66.200000, 0.000000)">
                <mask id="mask-4" fill="white">
                    <use xlink:href="#path-3"></use>
                </mask>
                <g id="Clip-14"></g>
                <path d="M26.4,46.3 C26.4,53.6 20.5,59.5 13.2,59.5 C5.9,59.5 0,53.6 0,46.3 L0,13.2 C0,5.9 5.9,0 13.2,0 C20.5,0 26.4,5.9 26.4,13.2 L26.4,46.3" id="Fill-13" fill="#FFFFFE" mask="url(#mask-4)"></path>
                <path d="M13.2,99.2 C20.5,99.2 26.4,105.1 26.4,112.4 C26.4,119.7 20.5,125.6 13.2,125.6 C5.9,125.6 0,119.7 0,112.4 L0,99.2 L13.2,99.2" id="Fill-15" fill="#FFFFFE" mask="url(#mask-4)"></path>
            </g>
            <path d="M79.4,92.6 C72.1,92.6 66.2,86.7 66.2,79.4 C66.2,72.1 72.1,66.2 79.4,66.2 L112.5,66.2 C119.8,66.2 125.7,72.1 125.7,79.4 C125.7,86.7 119.8,92.6 112.5,92.6 L79.4,92.6" id="Fill-17" fill="#FFFFFE"></path>
        </g>
    </g>
</svg>