<?xml version="1.0" encoding="utf-8"?>
<!-- Generator: Adobe Illustrator 16.0.4, SVG Export Plug-In . SVG Version: 6.00 Build 0)  -->
<!DOCTYPE svg PUBLIC "-//W3C//DTD SVG 1.1//EN" "http://www.w3.org/Graphics/SVG/1.1/DTD/svg11.dtd">
<svg version="1.1" id="Layer_1" xmlns="http://www.w3.org/2000/svg" xmlns:xlink="http://www.w3.org/1999/xlink" x="0px" y="0px"
	 width="690.28px" height="158.371px" viewBox="0 0 690.28 158.371" enable-background="new 0 0 690.28 158.371"
	 xml:space="preserve">
<g>
	<g>
		<path fill="#007D68" d="M663.704,140.738v15.324h-1.524v-15.324h-6.369v-1.432h14.208v1.432H663.704z M688.8,156.062l-0.86-14.829
			h-0.125l-5.737,14.829h-1.93l-5.203-14.829h-0.125l-0.811,14.829h-1.521l1.025-16.756h2.33l5.29,15.234h0.132l5.785-15.234h2.236
			l0.994,16.756H688.8z"/>
	</g>
	<g>
		<g enable-background="new    ">
			<g>
				<g>
					<path fill="#007D68" d="M149.999,23.235h-24.001V0h24.001V23.235z M150.025,155.704h-24.069V40.276h24.069V155.704z"/>
				</g>
				<g>
					<g>
						<path fill="#007D68" d="M288.874,40.276l-33.517,99.701c-5.763,16.298-16.032,18.394-24.352,18.394
							c-12.342,0-19.784-5.667-24.159-18.37l-27.931-82.794h-11.071v-16.93h28.847l28.785,92.678
							c1.268,3.962,2.043,6.325,5.53,6.325c3.626,0,4.349-2.401,5.515-6.325l29.371-92.678H288.874z"/>
						<path fill="#007D68" d="M348.13,40.276c31.144,0,52.865,20.547,52.865,49.986v18.125c0,29.406-21.722,49.983-52.865,49.983
							c-31.126,0-52.89-20.577-52.89-49.983V90.262C295.24,60.824,317.003,40.276,348.13,40.276 M348.13,139.379
							c18.632,0,30.175-14.091,30.175-30.992V90.262c0-16.907-11.438-30.998-30.175-30.998c-19.719,0-30.159,14.091-30.159,30.998
							v18.125C317.971,125.289,328.86,139.379,348.13,139.379"/>
						<path fill="#007D68" d="M593.139,43.976c-11.986-3.093-30.735-5.337-44.582-5.337c-31.586,0-51.198,19.938-51.198,52.061
							v12.651c0,32.1,19.612,52.327,51.198,52.327c0.735,0,6.354,0.026,8.921-0.222V136.08c-0.98,0-8.197,0.248-8.921,0.248
							c-17.187,0-28.741-13.261-28.741-32.978V90.699c0-19.734,11.555-32.974,28.741-32.974c7.795,0,19.537,0.63,23.583,1.481
							l1.294,0.28l0.018,96.218h24.048V47.966C597.499,45.896,597.499,45.115,593.139,43.976"/>
						<rect x="620.69" fill="#007D68" width="24.055" height="155.704"/>
						<path fill="#007D68" d="M42.227,0H0v155.677h25.022V21.644h14.674c3.107,0.026,5.777,0.152,8.424,0.198
							c21.699,0.432,32.321,9.019,32.321,25.903c0,0.673,0.041,1.11,0.041,1.825c0,15.598-8.57,25.949-32.228,25.949
							c-2.256,0-4.573-0.052-6.984-0.026c0.012,5.961-0.026,17.038-0.041,20.927c2.452,0.114,4.731,0.215,7.063,0.215
							c33.945,0,57.906-13.342,57.906-46.835c0-0.662-0.038-1.35-0.038-2.011C106.161,13.068,80.063,0,42.227,0"/>
						<path fill="#007D68" d="M443.717,15.4v24.876h39.189v18.65h-39.189v67.248c0,10.544,6.752,10.847,16.522,10.847h22.69v18.656
							h-30.706c-22.708,0-32.835-9.098-32.835-29.503V18.735L443.717,15.4z"/>
					</g>
				</g>
			</g>
		</g>
	</g>
</g>
<g>
</g>
<g>
</g>
<g>
</g>
<g>
</g>
<g>
</g>
<g>
</g>
</svg>
